<svg xmlns="http://www.w3.org/2000/svg" viewBox="0 0 232 81" width="232" height="81">
  <g fill="#000" transform="translate(14 13.5)">
    <path d="M19.712.133a5.381 5.381 0 0 0-5.376 5.387 5.381 5.381 0 0 0 5.376 5.386h5.376V5.52A5.381 5.381 0 0 0 19.712.133m0 14.365H5.376A5.381 5.381 0 0 0 0 19.884a5.381 5.381 0 0 0 5.376 5.387h14.336a5.381 5.381 0 0 0 5.376-5.387 5.381 5.381 0 0 0-5.376-5.386"/>
    <path d="M53.76 19.884a5.381 5.381 0 0 0-5.376-5.386 5.381 5.381 0 0 0-5.376 5.386v5.387h5.376a5.381 5.381 0 0 0 5.376-5.387m-14.336 0V5.52A5.381 5.381 0 0 0 34.048.133a5.381 5.381 0 0 0-5.376 5.387v14.364a5.381 5.381 0 0 0 5.376 5.387 5.381 5.381 0 0 0 5.376-5.387"/>
    <path d="M34.048 54a5.381 5.381 0 0 0 5.376-5.387 5.381 5.381 0 0 0-5.376-5.386h-5.376v5.386A5.381 5.381 0 0 0 34.048 54m0-14.365h14.336a5.381 5.381 0 0 0 5.376-5.386 5.381 5.381 0 0 0-5.376-5.387H34.048a5.381 5.381 0 0 0-5.376 5.387 5.381 5.381 0 0 0 5.376 5.386"/>
    <path d="M0 34.249a5.381 5.381 0 0 0 5.376 5.386 5.381 5.381 0 0 0 5.376-5.386v-5.387H5.376A5.381 5.381 0 0 0 0 34.25m14.336-.001v14.364A5.381 5.381 0 0 0 19.712 54a5.381 5.381 0 0 0 5.376-5.387V34.25a5.381 5.381 0 0 0-5.376-5.387 5.381 5.381 0 0 0-5.376 5.387"/>
  </g>
  <text x="84" y="56" font-family="Helvetica, Arial, sans-serif" font-size="42" font-weight="700" fill="#000">Slack</text>
</svg>
