<svg xmlns="http://www.w3.org/2000/svg" viewBox="0 0 16 16" fill="none" shape-rendering="crispEdges" aria-hidden="true" width="512" height="512"><!-- Generated by DiceBear (https://dicebear.com) --><metadata xmlns:rdf="http://www.w3.org/1999/02/22-rdf-syntax-ns#" xmlns:xsi="http://www.w3.org/2001/XMLSchema-instance" xmlns:dc="http://purl.org/dc/elements/1.1/" xmlns:dcterms="http://purl.org/dc/terms/"><rdf:RDF><rdf:Description><dc:title>Pixel Art</dc:title><dc:creator>DiceBear</dc:creator><dc:source xsi:type="dcterms:URI">https://www.figma.com/community/file/1198754108850888330</dc:source><dcterms:license xsi:type="dcterms:URI">https://creativecommons.org/publicdomain/zero/1.0/</dcterms:license><dc:rights>“Pixel Art” (https://www.figma.com/community/file/1198754108850888330) by “DiceBear”, licensed under “CC0 1.0” (https://creativecommons.org/publicdomain/zero/1.0/)</dc:rights></rdf:Description></rdf:RDF></metadata><defs><g id="clothes-variant12-123cde5d"><path d="M5 0h2v1h4v1h1v2H0V2h1V1h4z" fill="#ffd969"/><rect x="5" width="2" height="1" fill="black" fill-opacity=".3"/></g><g id="eyes-variant07-123cde5d"><rect width="3" height="2" fill="white"/><rect x="5" width="3" height="2" fill="white"/><rect x="7" y="1" width="1" height="1" fill="#76778b"/><rect x="2" y="1" width="1" height="1" fill="#76778b"/></g><g id="glasses-dark03-123cde5d"><rect y="1" width="12" height="1" fill="#a04b5d"/><rect x="1" y="3" width="10" height="1" fill="#a04b5d"/><rect x="1" y="2" width="1" height="1" fill="#a04b5d"/><rect x="10" y="2" width="1" height="1" fill="#a04b5d"/><rect x="2" y="2" width="8" height="1" fill="black" fill-opacity=".3"/><rect y="1" width="1" height="1" fill="white" fill-opacity=".2"/><rect x="11" y="1" width="1" height="1" fill="white" fill-opacity=".2"/><rect x="5" y="2" width="2" height="1" fill="black" fill-opacity=".3"/></g><g id="mouth-sad03-123cde5d"><path d="M3 0v1H1v1H0V1h1V0z" fill="#e35d6a"/></g><g id="hair-long18-123cde5d"><path d="M13 2H3v1H2v3h1V4h10v2h1V3h-1zM2 8h1v2H2v1H1V9h1zm-1 3v1H0v-1zm15 0h-1V9h-1V8h-1v2h1v1h1v1h1z" fill="#83623b"/></g><clipPath id="clip-123cde5d"><rect width="16" height="16" rx="0" ry="0"/></clipPath></defs><g clip-path="url(#clip-123cde5d)"><path d="M4 2h8v1h1v3h1v2h-1v3h-1v1H9v1h4v1h1v2H2v-2h1v-1h4v-1H4v-1H3V8H2V6h1V3h1z" fill="#cb9e6e"/><path d="M4 2h8v1h1v3h1v2h-1v3h-1v1H4v-1H3V8H2V6h1V3h1z" fill="white" fill-opacity=".1"/><use transform="translate(2 12)" href="#clothes-variant12-123cde5d"/><use transform="translate(4 5)" href="#eyes-variant07-123cde5d"/><use transform="translate(2 4)" href="#glasses-dark03-123cde5d"/><use transform="translate(6 9)" href="#mouth-sad03-123cde5d"/><use href="#hair-long18-123cde5d"/></g></svg>