<svg xmlns="http://www.w3.org/2000/svg" viewBox="0 0 16 16" fill="none" shape-rendering="crispEdges" aria-hidden="true" width="512" height="512"><!-- Generated by DiceBear (https://dicebear.com) --><metadata xmlns:rdf="http://www.w3.org/1999/02/22-rdf-syntax-ns#" xmlns:xsi="http://www.w3.org/2001/XMLSchema-instance" xmlns:dc="http://purl.org/dc/elements/1.1/" xmlns:dcterms="http://purl.org/dc/terms/"><rdf:RDF><rdf:Description><dc:title>Pixel Art</dc:title><dc:creator>DiceBear</dc:creator><dc:source xsi:type="dcterms:URI">https://www.figma.com/community/file/1198754108850888330</dc:source><dcterms:license xsi:type="dcterms:URI">https://creativecommons.org/publicdomain/zero/1.0/</dcterms:license><dc:rights>“Pixel Art” (https://www.figma.com/community/file/1198754108850888330) by “DiceBear”, licensed under “CC0 1.0” (https://creativecommons.org/publicdomain/zero/1.0/)</dc:rights></rdf:Description></rdf:RDF></metadata><defs><g id="clothes-variant18-838ff782"><path d="M2 1h2v1h1v1h2V2h1V1h2v3H2z" fill="#88d8b0"/><rect x="8" y="2" width="1" height="1" fill="white" fill-opacity=".3"/><rect x="9" y="1" width="1" height="1" fill="white" fill-opacity=".3"/><rect x="7" y="3" width="1" height="1" fill="white" fill-opacity=".3"/><rect x="7" y="2" width="1" height="1" fill="white" fill-opacity=".5"/><rect x="8" y="1" width="1" height="1" fill="white" fill-opacity=".5"/><rect x="6" y="3" width="1" height="1" fill="white" fill-opacity=".5"/><rect width="1" height="1" transform="matrix(-1 0 0 1 4 2)" fill="white" fill-opacity=".3"/><rect width="1" height="1" transform="matrix(-1 0 0 1 3 1)" fill="white" fill-opacity=".3"/><rect width="1" height="1" transform="matrix(-1 0 0 1 5 3)" fill="white" fill-opacity=".3"/><rect width="1" height="1" transform="matrix(-1 0 0 1 5 2)" fill="white" fill-opacity=".5"/><rect width="1" height="1" transform="matrix(-1 0 0 1 4 1)" fill="white" fill-opacity=".5"/><rect width="1" height="1" transform="matrix(-1 0 0 1 6 3)" fill="white" fill-opacity=".5"/></g><g id="eyes-variant03-838ff782"><path d="M6 0h1v2H5V1h1zM1 0h1v2H0V1h1z" fill="white"/><rect width="1" height="1" transform="matrix(-1 0 0 1 7 1)" fill="#876658"/><rect width="1" height="1" transform="matrix(-1 0 0 1 2 1)" fill="#876658"/></g><g id="mouth-happy02-838ff782"><path d="M2 1v1h1V1z" fill="#d29985"/></g><g id="hair-long11-838ff782"><path d="M6 1v1H3v2H2v2h1V5h4V4h3V3h2v1h1v2h1V2h-2V1zM2 8h1v2H2zm12 0h-1v2h1z" fill="#603a14"/></g><clipPath id="clip-838ff782"><rect width="16" height="16" rx="0" ry="0"/></clipPath></defs><g clip-path="url(#clip-838ff782)"><path d="M4 2h8v1h1v3h1v2h-1v3h-1v1H9v1h4v1h1v2H2v-2h1v-1h4v-1H4v-1H3V8H2V6h1V3h1z" fill="#f5cfa0"/><path d="M4 2h8v1h1v3h1v2h-1v3h-1v1H4v-1H3V8H2V6h1V3h1z" fill="white" fill-opacity=".1"/><use transform="translate(2 12)" href="#clothes-variant18-838ff782"/><use transform="translate(4 5)" href="#eyes-variant03-838ff782"/><use transform="translate(6 9)" href="#mouth-happy02-838ff782"/><use href="#hair-long11-838ff782"/></g></svg>