<svg xmlns="http://www.w3.org/2000/svg" viewBox="0 0 16 16" fill="none" shape-rendering="crispEdges" aria-hidden="true" width="512" height="512"><!-- Generated by DiceBear (https://dicebear.com) --><metadata xmlns:rdf="http://www.w3.org/1999/02/22-rdf-syntax-ns#" xmlns:xsi="http://www.w3.org/2001/XMLSchema-instance" xmlns:dc="http://purl.org/dc/elements/1.1/" xmlns:dcterms="http://purl.org/dc/terms/"><rdf:RDF><rdf:Description><dc:title>Pixel Art</dc:title><dc:creator>DiceBear</dc:creator><dc:source xsi:type="dcterms:URI">https://www.figma.com/community/file/1198754108850888330</dc:source><dcterms:license xsi:type="dcterms:URI">https://creativecommons.org/publicdomain/zero/1.0/</dcterms:license><dc:rights>“Pixel Art” (https://www.figma.com/community/file/1198754108850888330) by “DiceBear”, licensed under “CC0 1.0” (https://creativecommons.org/publicdomain/zero/1.0/)</dc:rights></rdf:Description></rdf:RDF></metadata><defs><g id="clothes-variant11-0c0bc949"><path d="M8 1h3v1h1v2H0V2h1V1h3v1h1v1h2V2h1z" fill="#ffc425"/></g><g id="eyes-variant07-0c0bc949"><rect width="3" height="2" fill="white"/><rect x="5" width="3" height="2" fill="white"/><rect x="7" y="1" width="1" height="1" fill="#647b90"/><rect x="2" y="1" width="1" height="1" fill="#647b90"/></g><g id="mouth-happy07-0c0bc949"><path d="M4 2V1H1V0H0v1h1v1z" fill="#e35d6a"/></g><g id="hair-short20-0c0bc949"><rect x="6" y="2" width="4" height="1" fill="#a78961"/><rect x="7" y="3" width="2" height="1" fill="#a78961"/></g><clipPath id="clip-0c0bc949"><rect width="16" height="16" rx="0" ry="0"/></clipPath></defs><g clip-path="url(#clip-0c0bc949)"><path d="M4 2h8v1h1v3h1v2h-1v3h-1v1H9v1h4v1h1v2H2v-2h1v-1h4v-1H4v-1H3V8H2V6h1V3h1z" fill="#e0b687"/><path d="M4 2h8v1h1v3h1v2h-1v3h-1v1H4v-1H3V8H2V6h1V3h1z" fill="white" fill-opacity=".1"/><use transform="translate(2 12)" href="#clothes-variant11-0c0bc949"/><use transform="translate(4 5)" href="#eyes-variant07-0c0bc949"/><use transform="translate(6 9)" href="#mouth-happy07-0c0bc949"/><use href="#hair-short20-0c0bc949"/></g></svg>