<svg xmlns="http://www.w3.org/2000/svg" xmlns:xlink="http://www.w3.org/1999/xlink" width="1000" zoomAndPan="magnify" viewBox="0 0 750 374.999991" height="500" preserveAspectRatio="xMidYMid meet" version="1.0"><path fill="#1b1919" d="M 239.488281 195.003906 C 239.488281 190.742188 240.277344 186.816406 241.859375 183.230469 C 243.4375 179.644531 245.554688 176.585938 248.207031 174.058594 C 253.671875 168.910156 260.386719 166.335938 268.347656 166.335938 C 276.054688 166.335938 282.167969 168.894531 286.6875 174.011719 C 291.015625 178.910156 293.179688 185.289062 293.179688 193.15625 C 293.179688 202.097656 290.367188 209.570312 284.742188 215.570312 C 279.214844 221.417969 272.40625 224.339844 264.320312 224.339844 C 256.359375 224.339844 250.152344 221.511719 245.695312 215.855469 C 241.558594 210.644531 239.488281 203.691406 239.488281 195.003906 Z M 266.453125 218.320312 C 268.851562 218.320312 270.976562 217.894531 272.824219 217.039062 C 274.671875 216.1875 276.277344 214.875 277.636719 213.105469 C 280.605469 209.347656 282.089844 203.914062 282.089844 196.804688 C 282.089844 189.222656 280.636719 183.207031 277.730469 178.75 C 274.792969 174.296875 270.796875 172.070312 265.742188 172.070312 C 261.285156 172.070312 257.667969 173.808594 254.890625 177.28125 C 251.824219 181.105469 250.292969 186.585938 250.292969 193.726562 C 250.292969 201.148438 251.730469 207.074219 254.605469 211.496094 C 257.542969 216.046875 261.492188 218.320312 266.453125 218.320312 Z M 357.816406 215.003906 L 358.195312 214.957031 L 358.433594 214.957031 L 358.292969 220.832031 L 344.359375 224.433594 C 343 222.316406 342.101562 219.835938 341.65625 216.992188 C 338.246094 219.835938 333.773438 222.046875 328.246094 223.628906 C 326.351562 224.164062 324.402344 224.433594 322.394531 224.433594 C 320.390625 224.433594 318.398438 224.101562 316.425781 223.4375 C 314.449219 222.773438 312.734375 221.761719 311.28125 220.40625 C 308.21875 217.53125 306.6875 213.328125 306.6875 207.800781 L 307.066406 181.027344 C 307.066406 177.867188 306.574219 175.828125 305.597656 174.914062 C 304.871094 174.25 303.367188 173.808594 301.09375 173.585938 L 301.804688 168.941406 L 318.105469 166.289062 L 317.160156 175.101562 C 316.496094 181.167969 316.164062 190.394531 316.164062 202.777344 C 316.164062 207.832031 316.875 211.371094 318.296875 213.390625 C 319.683594 215.445312 322.148438 216.472656 325.6875 216.472656 C 328.878906 216.472656 331.644531 216.015625 333.980469 215.097656 C 337.710938 213.582031 340.0625 212.222656 341.042969 211.023438 L 340.945312 211.070312 L 340.945312 181.5 C 340.945312 178.183594 340.300781 176.050781 339.003906 175.101562 C 337.992188 174.3125 335.734375 173.886719 332.226562 173.824219 L 332.9375 168.941406 L 351.277344 166.289062 C 351.183594 167.929688 351.085938 169.351562 350.992188 170.554688 L 350.804688 173.726562 C 350.742188 174.769531 350.675781 175.710938 350.613281 176.546875 C 350.550781 177.386719 350.503906 178.261719 350.472656 179.179688 C 350.410156 181.011719 350.378906 183.488281 350.378906 186.617188 L 350.378906 209.175781 C 350.378906 212.207031 350.636719 214.054688 351.160156 214.71875 C 351.679688 215.382812 352.171875 215.746094 352.628906 215.808594 C 353.085938 215.871094 353.582031 215.902344 354.121094 215.902344 L 354.546875 215.902344 C 355.527344 215.902344 356.617188 215.601562 357.816406 215.003906 Z M 395.871094 213.535156 L 397.957031 217.5625 C 394.828125 220.46875 390.832031 222.523438 385.96875 223.722656 C 384.417969 224.132812 382.792969 224.339844 381.085938 224.339844 C 379.378906 224.339844 377.808594 224.148438 376.371094 223.769531 C 374.933594 223.390625 373.742188 222.742188 372.792969 221.828125 C 370.960938 220.058594 369.949219 216.914062 369.761719 212.398438 L 369.761719 174.488281 L 361.515625 174.488281 L 361.894531 169.652344 C 366.316406 168.863281 369.382812 167.203125 371.085938 164.675781 C 372.445312 162.65625 373.597656 158.660156 374.546875 152.6875 L 379.710938 152.6875 L 379.710938 167.234375 L 397.199219 167.234375 L 397.199219 174.488281 L 379.332031 174.488281 L 379.332031 206.898438 C 379.332031 210.847656 379.902344 213.453125 381.039062 214.71875 C 381.988281 215.761719 383.960938 216.28125 386.960938 216.28125 C 389.964844 216.28125 392.933594 215.367188 395.871094 213.535156 Z M 439.660156 166.714844 C 439.753906 167.285156 439.800781 168.308594 439.800781 169.796875 C 439.800781 171.28125 439.628906 173.113281 439.28125 175.292969 L 438.285156 181.972656 L 432.410156 181.972656 C 432.34375 178.246094 431.507812 175.640625 429.898438 174.15625 C 428.253906 172.636719 425.617188 171.878906 421.984375 171.878906 C 417.75 171.878906 414.984375 173.300781 413.691406 176.144531 C 413.28125 177.125 413.074219 178.253906 413.074219 179.535156 C 413.074219 180.8125 413.382812 181.941406 414 182.921875 C 414.613281 183.902344 415.429688 184.800781 416.4375 185.621094 C 418.082031 186.949219 420.054688 188.117188 422.363281 189.128906 L 428 191.640625 C 437.511719 196.0625 442.328125 201.339844 442.453125 207.46875 C 442.519531 212.648438 440.511719 216.820312 436.4375 219.976562 C 432.738281 222.886719 428.253906 224.339844 422.976562 224.339844 C 420.453125 224.339844 417.75 224.039062 414.875 223.4375 C 410.292969 222.523438 407.65625 222.0625 406.960938 222.0625 L 405.160156 222.0625 C 404.6875 222.0625 404.277344 222.09375 403.929688 222.160156 C 404.054688 216.15625 404.355469 211.226562 404.828125 207.375 L 410.988281 207.375 C 411.148438 211.257812 412.199219 214.101562 414.140625 215.902344 C 416.082031 217.703125 419.171875 218.605469 423.40625 218.605469 C 428.207031 218.605469 431.222656 217.246094 432.457031 214.527344 C 432.898438 213.550781 433.121094 212.261719 433.121094 210.667969 C 433.121094 209.070312 432.699219 207.6875 431.863281 206.519531 C 431.027344 205.351562 429.984375 204.355469 428.734375 203.535156 C 427.488281 202.714844 426.128906 202.003906 424.660156 201.402344 C 423.191406 200.800781 421.660156 200.132812 420.0625 199.386719 C 418.46875 198.644531 416.714844 197.769531 414.804688 196.757812 C 412.894531 195.746094 411.164062 194.5625 409.617188 193.203125 C 406.078125 190.078125 404.277344 186.332031 404.214844 181.972656 C 404.148438 177.109375 406.234375 173.207031 410.46875 170.269531 C 414.289062 167.648438 418.792969 166.335938 423.972656 166.335938 C 425.425781 166.335938 426.945312 166.460938 428.523438 166.714844 C 431.492188 167.1875 433.59375 167.425781 434.824219 167.425781 C 436.058594 167.425781 437.667969 167.1875 439.660156 166.714844 Z M 478.898438 215.949219 C 484.015625 215.949219 489.210938 214.511719 494.488281 211.636719 L 496.289062 215.476562 C 494.773438 217.183594 492.734375 218.730469 490.175781 220.121094 C 484.835938 222.996094 480.199219 224.433594 476.269531 224.433594 C 472.335938 224.433594 468.796875 223.824219 465.652344 222.609375 C 462.507812 221.390625 459.785156 219.648438 457.480469 217.371094 C 452.644531 212.570312 450.226562 206.140625 450.226562 198.085938 C 450.226562 188.292969 453.152344 180.441406 458.996094 174.535156 C 464.398438 169.070312 471.175781 166.335938 479.324219 166.335938 C 483.777344 166.335938 488.234375 167.015625 492.6875 168.375 L 493.96875 168.753906 C 494.378906 168.878906 494.742188 168.972656 495.058594 169.035156 C 495.308594 169.542969 495.4375 170.679688 495.4375 172.449219 C 495.4375 174.21875 495.398438 175.601562 495.316406 176.59375 C 495.238281 177.589844 495.144531 178.546875 495.035156 179.460938 C 494.921875 180.378906 494.804688 181.199219 494.679688 181.925781 L 494.394531 183.632812 C 494.203125 183.949219 493.226562 184.105469 491.457031 184.105469 C 489.308594 184.105469 487.902344 183.964844 487.238281 183.679688 C 487.238281 179.921875 486.773438 177.351562 485.839844 175.980469 C 484.910156 174.605469 483.738281 173.601562 482.332031 172.96875 C 480.925781 172.339844 479.078125 172.023438 476.789062 172.023438 C 474.5 172.023438 472.375 172.503906 470.414062 173.46875 C 468.457031 174.429688 466.734375 175.859375 465.25 177.757812 C 462.027344 181.925781 460.417969 187.582031 460.417969 194.722656 C 460.417969 204.925781 463.859375 211.496094 470.746094 214.433594 C 473.054688 215.445312 475.769531 215.949219 478.898438 215.949219 Z M 547.753906 182.351562 L 546.996094 207.515625 C 546.996094 210.894531 548.023438 213.328125 550.074219 214.8125 C 551.496094 215.855469 553.3125 216.378906 555.527344 216.378906 C 555.398438 217.988281 554.75 219.441406 553.582031 220.738281 C 551.527344 223.011719 549.855469 224.320312 548.558594 224.671875 C 546.601562 224.671875 544.761719 224.007812 543.039062 222.679688 C 541.316406 221.351562 539.980469 219.410156 539.035156 216.851562 C 535.433594 220.261719 531.027344 222.679688 525.8125 224.101562 C 524.359375 224.511719 522.660156 224.71875 520.71875 224.71875 C 518.777344 224.71875 516.707031 224.347656 514.511719 223.601562 C 512.316406 222.859375 510.476562 221.8125 508.992188 220.453125 C 505.988281 217.703125 504.488281 213.960938 504.488281 209.222656 C 504.488281 203.472656 507.710938 199 514.15625 195.8125 C 520.160156 192.839844 528.058594 191.355469 537.851562 191.355469 L 538.371094 191.355469 C 538.371094 189.367188 538.339844 187.421875 538.277344 185.527344 L 538.230469 183.632812 C 538.070312 179.808594 536.695312 176.902344 534.105469 174.914062 C 532.054688 173.332031 529.527344 172.542969 526.523438 172.542969 C 523.523438 172.542969 521.105469 173.339844 519.273438 174.9375 C 517.441406 176.53125 516.527344 178.832031 516.527344 181.832031 C 516.527344 182.9375 516.652344 184.121094 516.90625 185.386719 L 508.421875 185.386719 L 508.089844 185.289062 C 507.996094 184.785156 507.902344 184.25 507.804688 183.679688 C 507.523438 182.320312 507.292969 180.90625 507.117188 179.4375 C 506.945312 177.96875 506.859375 176.996094 506.859375 176.523438 C 506.859375 175.828125 506.984375 175.324219 507.238281 175.007812 C 515.417969 169.226562 523.429688 166.335938 531.261719 166.335938 C 538.90625 166.335938 543.945312 169.117188 546.378906 174.675781 C 547.296875 176.730469 547.753906 179.289062 547.753906 182.351562 Z M 537.851562 209.363281 C 538.070312 205.382812 538.230469 201.117188 538.324219 196.570312 C 537.976562 196.441406 536.925781 196.378906 535.171875 196.378906 C 533.417969 196.378906 531.207031 196.65625 528.539062 197.207031 C 525.867188 197.761719 523.539062 198.558594 521.546875 199.601562 C 517.316406 201.84375 515.199219 204.847656 515.199219 208.605469 C 515.199219 211.226562 516.050781 213.421875 517.757812 215.191406 C 519.496094 216.960938 521.738281 217.847656 524.488281 217.847656 C 527.898438 217.847656 531.40625 216.3125 535.007812 213.25 C 536.082031 212.332031 537.027344 211.371094 537.851562 210.359375 Z M 576.566406 142.832031 C 575.902344 146.273438 575.570312 153.195312 575.570312 163.585938 L 575.570312 167 L 575.667969 212.347656 C 575.667969 214.941406 575.855469 216.550781 576.234375 217.183594 C 576.835938 218.128906 577.894531 218.605469 579.410156 218.605469 C 581.527344 218.605469 583.375 218.429688 584.953125 218.082031 L 584.195312 223.628906 L 556.757812 223.628906 L 557.566406 218.605469 C 560.851562 218.605469 562.960938 218.242188 563.890625 217.515625 C 564.824219 216.789062 565.421875 216.039062 565.691406 215.261719 C 565.960938 214.488281 566.09375 213.535156 566.09375 212.398438 L 566.09375 158.941406 C 566.09375 156.257812 565.929688 154.582031 565.597656 153.921875 C 565.265625 153.257812 564.964844 152.757812 564.695312 152.425781 C 564.429688 152.097656 564.019531 151.828125 563.464844 151.621094 C 562.910156 151.417969 562.273438 151.28125 561.546875 151.21875 C 560.535156 151.09375 558.859375 151.03125 556.523438 151.03125 L 557.089844 145.628906 Z M 616.421875 216.234375 C 622.675781 215.824219 628.191406 214.324219 632.960938 211.734375 L 635.046875 215.714844 C 630.273438 219.664062 624.839844 222.363281 618.742188 223.816406 C 616.910156 224.226562 615.238281 224.433594 613.722656 224.433594 C 601.8125 224.433594 594.308594 219.171875 591.210938 208.652344 C 590.199219 205.273438 589.695312 201.332031 589.695312 196.828125 C 589.695312 192.328125 590.429688 188.179688 591.898438 184.390625 C 593.367188 180.597656 595.3125 177.371094 597.726562 174.699219 C 600.144531 172.03125 602.917969 169.96875 606.042969 168.515625 C 609.171875 167.0625 612.410156 166.335938 615.757812 166.335938 C 629.183594 166.335938 635.898438 174.011719 635.898438 189.367188 L 635.898438 189.839844 C 635.898438 193.851562 635.425781 195.859375 634.476562 195.859375 L 599.597656 195.859375 C 599.597656 202.460938 601.058594 207.484375 603.984375 210.929688 C 606.90625 214.371094 611.050781 216.140625 616.421875 216.234375 Z M 625.09375 189.792969 C 625.125 189.128906 625.140625 188.625 625.140625 188.277344 L 625.140625 186.710938 C 625.140625 179.289062 623.089844 174.722656 618.980469 173.015625 C 617.496094 172.386719 615.910156 172.070312 614.21875 172.070312 C 612.527344 172.070312 611.097656 172.324219 609.929688 172.828125 C 608.761719 173.332031 607.664062 174.027344 606.636719 174.914062 C 605.609375 175.796875 604.667969 176.832031 603.816406 178.015625 C 602.964844 179.203125 602.222656 180.503906 601.589844 181.925781 C 600.261719 184.863281 599.597656 187.867188 599.597656 190.929688 Z M 664.949219 167.519531 C 667.351562 166.730469 670.136719 166.335938 673.3125 166.335938 C 676.488281 166.335938 679.71875 166.777344 683.003906 167.664062 L 683.003906 166.714844 C 683.003906 159.257812 682.878906 155.144531 682.625 154.371094 C 682.371094 153.597656 682.0625 153.035156 681.699219 152.6875 C 681.335938 152.339844 680.863281 152.039062 680.277344 151.789062 C 679.695312 151.535156 679.054688 151.34375 678.359375 151.21875 C 677.476562 151.09375 675.941406 151.03125 673.761719 151.03125 L 672.863281 151.03125 L 673.574219 145.628906 L 693.285156 142.878906 C 693.285156 143.164062 693.261719 143.398438 693.214844 143.589844 C 693.167969 143.777344 693.097656 144.214844 693.003906 144.894531 C 692.90625 145.570312 692.8125 146.734375 692.71875 148.375 C 692.464844 152.765625 692.339844 158.675781 692.339844 166.097656 L 692.339844 209.316406 C 692.339844 211.78125 692.617188 213.519531 693.167969 214.527344 C 693.722656 215.539062 694.503906 216.046875 695.515625 216.046875 C 696.839844 216.046875 698.355469 215.746094 700.0625 215.144531 L 701.4375 214.71875 C 701.375 215.097656 701.320312 215.625 701.273438 216.304688 C 701.222656 216.984375 701.167969 217.6875 701.105469 218.414062 C 701.042969 219.140625 700.996094 219.929688 700.964844 220.785156 L 686.082031 224.480469 C 685.734375 224.320312 685.253906 223.359375 684.636719 221.589844 C 684.023438 219.820312 683.605469 218.527344 683.382812 217.703125 C 679.371094 220.546875 675.105469 222.554688 670.585938 223.722656 C 669.007812 224.132812 667.097656 224.339844 664.855469 224.339844 C 662.609375 224.339844 660.164062 223.769531 657.507812 222.632812 C 654.855469 221.496094 652.566406 219.804688 650.636719 217.5625 C 646.4375 212.792969 644.335938 206.203125 644.335938 197.800781 C 644.335938 192.304688 645.597656 187.089844 648.125 182.164062 C 651.917969 174.738281 657.523438 169.859375 664.949219 167.519531 Z M 668.359375 215.667969 C 670.128906 215.601562 671.835938 215.398438 673.480469 215.050781 C 675.121094 214.703125 676.605469 214.308594 677.933594 213.867188 C 680.746094 212.949219 682.464844 212.175781 683.097656 211.542969 L 683.003906 211.589844 L 683.003906 177.140625 C 681.613281 175.054688 678.945312 173.585938 674.996094 172.734375 C 673.859375 172.480469 672.371094 172.355469 670.539062 172.355469 C 668.707031 172.355469 666.726562 172.773438 664.59375 173.609375 C 662.460938 174.445312 660.636719 175.8125 659.121094 177.707031 C 655.960938 181.65625 654.382812 187.851562 654.382812 196.285156 C 654.382812 201.972656 655.820312 206.695312 658.695312 210.453125 C 661.441406 214.023438 664.664062 215.761719 668.359375 215.667969 Z M 706.273438 217.515625 C 706.273438 215.460938 707.015625 213.707031 708.5 212.253906 C 710.015625 210.800781 711.800781 210.074219 713.855469 210.074219 C 715.90625 210.074219 717.691406 210.800781 719.210938 212.253906 C 720.695312 213.707031 721.4375 215.460938 721.4375 217.515625 C 721.4375 219.535156 720.695312 221.289062 719.210938 222.773438 C 717.726562 224.257812 715.941406 225 713.855469 225 C 711.769531 225 709.984375 224.257812 708.5 222.773438 C 707.015625 221.289062 706.273438 219.535156 706.273438 217.515625 Z M 706.273438 217.515625 " fill-opacity="1" fill-rule="nonzero"/><path fill="#1b1919" d="M 184.675781 140.058594 C 180.640625 139.914062 175.285156 139.925781 171.234375 140.027344 L 171.234375 140.070312 C 171.253906 141.007812 171.269531 141.84375 171.222656 142.789062 C 170.15625 142.886719 169.011719 142.824219 167.882812 142.910156 C 167.90625 143.628906 167.902344 144.308594 167.890625 145.023438 L 165.109375 145.035156 C 165.121094 146.058594 165.117188 147.078125 165.101562 148.101562 C 164.441406 148.144531 163.539062 148.113281 162.757812 148.082031 C 162.535156 148.074219 162.324219 148.066406 162.128906 148.058594 L 162.109375 146.089844 C 161.269531 146.09375 160.429688 146.109375 159.589844 146.136719 L 159.578125 148.910156 C 159.453125 149.246094 158.390625 149.257812 157.644531 149.265625 C 157.421875 149.265625 157.226562 149.269531 157.09375 149.28125 C 157.097656 149.40625 157.101562 149.535156 157.105469 149.664062 C 157.125 150.148438 157.144531 150.652344 157.140625 151.113281 C 157.121094 151.25 157.109375 151.351562 157.097656 151.429688 C 157.074219 151.667969 157.066406 151.726562 156.835938 151.9375 C 156.472656 152.046875 156.101562 152.035156 155.699219 152.019531 L 155.683594 152.019531 C 155.378906 152.011719 155.050781 152 154.695312 152.042969 C 154.691406 153.125 154.714844 154.347656 154.738281 155.597656 L 154.738281 155.613281 L 154.742188 155.695312 L 154.742188 155.75 C 154.78125 157.902344 154.824219 160.125 154.742188 161.867188 L 151.289062 161.875 L 151.265625 159.730469 C 150.464844 159.71875 149.664062 159.714844 148.867188 159.726562 L 148.855469 162.082031 C 148.96875 162.078125 149.101562 162.074219 149.25 162.070312 C 149.917969 162.046875 150.886719 162.015625 151.328125 162.097656 C 151.417969 162.300781 151.402344 162.382812 151.371094 162.554688 C 151.363281 162.59375 151.355469 162.640625 151.347656 162.695312 C 151.003906 163.140625 150.449219 163.089844 149.882812 163.039062 C 149.699219 163.023438 149.511719 163.007812 149.332031 163.007812 C 149.390625 164.726562 149.410156 166.445312 149.386719 168.167969 L 146.765625 168.195312 L 146.792969 170.359375 C 147.300781 170.359375 147.820312 170.359375 148.34375 170.355469 C 150.574219 170.347656 152.910156 170.335938 155.058594 170.429688 C 155.070312 169.429688 155.070312 168.425781 155.0625 167.425781 C 155.507812 167.410156 157.292969 167.402344 157.628906 167.339844 C 157.582031 166.839844 157.585938 166.601562 157.632812 166.101562 C 157.609375 165.375 157.589844 164.695312 157.597656 163.960938 C 158.390625 163.960938 158.828125 163.855469 159.292969 163.742188 C 159.675781 163.648438 160.078125 163.550781 160.714844 163.503906 C 160.71875 163.664062 160.722656 163.820312 160.726562 163.972656 C 160.75 164.707031 160.765625 165.351562 160.714844 166.140625 C 159.796875 166.121094 158.878906 166.128906 157.957031 166.167969 C 157.941406 166.308594 157.925781 166.449219 157.914062 166.589844 C 157.910156 166.820312 157.902344 167.007812 157.882812 167.242188 C 157.949219 168.320312 158.003906 169.671875 157.894531 170.753906 C 156.988281 170.761719 156.082031 170.761719 155.175781 170.761719 C 155.175781 170.933594 155.175781 171.109375 155.179688 171.285156 C 155.179688 171.714844 155.183594 172.148438 155.175781 172.574219 C 154.074219 172.542969 152.496094 172.535156 151.394531 172.597656 L 151.382812 174.773438 L 149.203125 174.773438 C 149.203125 174.898438 149.203125 175.027344 149.207031 175.15625 L 149.207031 175.167969 C 149.207031 175.632812 149.210938 176.113281 149.179688 176.554688 L 135.304688 176.53125 C 134.644531 176.53125 133.929688 176.535156 133.199219 176.542969 L 133.195312 176.542969 C 131.511719 176.558594 129.730469 176.574219 128.242188 176.511719 L 128.234375 174.820312 C 124.871094 174.671875 120.003906 174.71875 116.589844 174.785156 C 116.589844 174.992188 116.59375 175.210938 116.59375 175.433594 L 116.59375 175.460938 C 116.597656 176.054688 116.601562 176.679688 116.574219 177.234375 C 115.597656 177.246094 114.480469 177.246094 113.515625 177.3125 C 113.503906 178.125 113.515625 179.039062 113.472656 179.84375 C 112.671875 179.941406 111.933594 179.941406 111.144531 179.9375 C 111.039062 179.9375 110.929688 179.9375 110.820312 179.941406 C 110.824219 180.054688 110.828125 180.171875 110.832031 180.296875 L 110.832031 180.304688 C 110.847656 180.90625 110.863281 181.59375 110.796875 182.132812 C 110.15625 182.144531 109.296875 182.136719 108.679688 182.207031 C 108.683594 182.359375 108.6875 182.523438 108.691406 182.691406 L 108.691406 182.707031 C 108.710938 183.328125 108.730469 184.007812 108.695312 184.570312 C 108.441406 184.570312 108.175781 184.570312 107.90625 184.570312 L 107.75 184.570312 C 106.925781 184.566406 106.0625 184.5625 105.304688 184.59375 C 105.296875 184.933594 105.296875 185.382812 105.300781 185.855469 L 105.300781 185.902344 C 105.304688 186.730469 105.304688 187.625 105.261719 188.152344 C 104.484375 188.148438 103.828125 188.152344 103.054688 188.199219 L 103.085938 197.503906 C 103.09375 198.152344 103.105469 198.808594 103.117188 199.472656 C 103.152344 201.199219 103.183594 202.953125 103.136719 204.636719 C 102.210938 204.667969 101.246094 204.660156 100.335938 204.695312 C 100.339844 204.9375 100.34375 205.1875 100.347656 205.445312 C 100.359375 206.089844 100.371094 206.757812 100.351562 207.367188 C 99.53125 207.347656 98.710938 207.34375 97.890625 207.355469 L 97.890625 209.113281 C 97.703125 209.109375 97.503906 209.109375 97.300781 209.105469 C 96.558594 209.09375 95.753906 209.085938 95.074219 209.132812 C 95.070312 209.410156 95.070312 209.734375 95.070312 210.074219 L 95.070312 210.097656 C 95.070312 210.808594 95.070312 211.585938 95.027344 212.136719 L 92.617188 212.164062 C 92.617188 212.589844 92.625 213.042969 92.628906 213.507812 C 92.648438 215.007812 92.664062 216.652344 92.574219 217.988281 L 90.890625 218.023438 L 90.871094 219.886719 C 90.050781 219.851562 89.414062 219.875 88.585938 219.910156 C 88.539062 220.648438 88.453125 221.53125 88.433594 222.261719 C 87.816406 222.277344 87.125 222.277344 86.515625 222.3125 C 86.5 222.984375 86.5 223.707031 86.464844 224.375 L 84.019531 224.433594 C 84.019531 224.613281 84.023438 224.796875 84.023438 224.988281 L 84.023438 225.019531 C 84.027344 225.71875 84.027344 226.480469 83.976562 227.117188 C 82.660156 227.117188 81.347656 227.132812 80.03125 227.160156 L 80.019531 229.675781 C 79.699219 229.679688 79.367188 229.679688 79.039062 229.679688 L 78.996094 229.679688 C 78.542969 229.679688 78.089844 229.679688 77.652344 229.691406 L 77.648438 235.5 L 80.414062 235.503906 L 80.425781 233.246094 L 83.320312 233.234375 L 83.332031 230.058594 C 83.832031 230.074219 84.328125 230.074219 84.824219 230.074219 L 84.859375 230.074219 C 85.242188 230.074219 85.621094 230.074219 86.003906 230.082031 L 86.023438 226.835938 L 88.761719 226.808594 C 88.765625 226.546875 88.761719 226.253906 88.757812 225.945312 C 88.75 225.183594 88.742188 224.347656 88.792969 223.714844 L 89.152344 223.710938 C 89.65625 223.707031 90.164062 223.703125 90.667969 223.722656 L 90.742188 222.074219 L 92.5625 222.066406 L 92.601562 219.816406 L 95.339844 219.804688 L 95.371094 217.019531 C 96.105469 217.003906 97.050781 217.007812 97.765625 216.949219 L 97.78125 215.054688 C 98.023438 215.050781 98.269531 215.046875 98.515625 215.042969 C 99.09375 215.035156 99.671875 215.023438 100.246094 215.027344 C 100.246094 214.050781 100.253906 213.078125 100.265625 212.105469 C 102.15625 212.078125 104.515625 212.050781 106.402344 212.125 L 106.421875 209.679688 C 106.867188 209.640625 107.375 209.585938 107.816406 209.574219 L 107.835938 207.214844 L 109.335938 207.238281 C 109.25 207.769531 109.253906 208.4375 109.257812 209.027344 L 109.257812 209.035156 C 109.261719 209.152344 109.261719 209.265625 109.261719 209.375 C 111.757812 209.367188 114.257812 209.378906 116.753906 209.417969 L 116.78125 206.996094 L 119.058594 206.976562 L 119.074219 204.953125 C 119.757812 204.933594 120.441406 204.917969 121.125 204.914062 L 121.132812 202.269531 L 123.253906 202.265625 L 123.277344 198.527344 C 123.101562 198.527344 122.925781 198.527344 122.746094 198.527344 L 122.714844 198.527344 C 122.199219 198.523438 121.675781 198.523438 121.171875 198.539062 C 121.164062 199.328125 121.167969 200.1875 121.125 200.964844 L 119.378906 201.007812 C 119.367188 201.671875 119.371094 202.414062 119.304688 203.070312 C 118.582031 203.082031 117.859375 203.089844 117.136719 203.089844 C 117.136719 203.28125 117.136719 203.484375 117.136719 203.6875 C 117.136719 204.207031 117.136719 204.75 117.113281 205.230469 C 116.492188 205.25 115.863281 205.265625 115.246094 205.292969 C 115.25 205.445312 115.253906 205.605469 115.261719 205.765625 C 115.273438 206.234375 115.289062 206.722656 115.28125 207.160156 C 113.386719 207.171875 111.492188 207.160156 109.601562 207.125 C 109.597656 206.851562 109.59375 206.574219 109.59375 206.296875 L 109.589844 206.21875 L 109.589844 206.132812 C 109.585938 205.597656 109.582031 205.0625 109.582031 204.53125 C 111.292969 204.507812 113.003906 204.515625 114.714844 204.5625 L 114.722656 202.453125 L 116.425781 202.4375 C 116.457031 201.648438 116.472656 200.855469 116.472656 200.0625 L 116.847656 200.058594 L 116.851562 200.058594 C 117.65625 200.050781 118.457031 200.042969 119.261719 200.070312 L 119.269531 197.078125 C 119.355469 197.074219 119.4375 197.070312 119.519531 197.070312 L 119.535156 197.070312 C 120.152344 197.050781 120.761719 197.03125 121.382812 197.050781 C 121.382812 196.859375 121.386719 196.65625 121.386719 196.449219 C 121.386719 195.832031 121.390625 195.179688 121.429688 194.609375 C 121.570312 194.605469 121.714844 194.601562 121.859375 194.597656 L 121.882812 194.597656 C 122.480469 194.582031 123.109375 194.566406 123.667969 194.601562 C 123.671875 194.695312 123.671875 194.792969 123.671875 194.890625 L 123.671875 194.894531 C 123.691406 196.070312 123.707031 197.332031 123.601562 198.484375 C 125.042969 198.402344 126.90625 198.414062 128.359375 198.476562 L 128.359375 200.277344 C 129.109375 200.277344 129.890625 200.269531 130.6875 200.265625 L 130.710938 200.265625 C 132.554688 200.25 134.464844 200.234375 136.179688 200.292969 L 136.203125 202.671875 L 157.8125 202.6875 C 157.847656 201.925781 157.871094 201.160156 157.886719 200.398438 L 160.6875 200.382812 L 160.707031 197.914062 C 160.570312 197.910156 160.429688 197.902344 160.285156 197.898438 C 159.898438 197.878906 159.492188 197.859375 159.121094 197.863281 C 159.121094 197.59375 159.113281 197.296875 159.109375 196.980469 C 159.09375 196.042969 159.074219 194.96875 159.121094 194.199219 C 159.21875 194.195312 159.316406 194.195312 159.414062 194.191406 L 159.417969 194.191406 C 159.929688 194.179688 160.4375 194.171875 160.949219 194.199219 L 160.949219 197.101562 C 161.09375 197.101562 161.242188 197.097656 161.398438 197.097656 L 161.4375 197.097656 C 162.066406 197.089844 162.773438 197.082031 163.324219 197.140625 C 163.328125 197.320312 163.328125 197.5 163.328125 197.683594 C 163.335938 198.097656 163.339844 198.519531 163.335938 198.925781 C 163.5 198.925781 163.671875 198.921875 163.851562 198.917969 L 163.863281 198.917969 C 164.558594 198.90625 165.324219 198.890625 165.949219 198.941406 L 165.996094 200.691406 C 166.839844 200.699219 167.695312 200.695312 168.535156 200.714844 L 168.535156 202.660156 C 169.863281 202.667969 171.210938 202.667969 172.566406 202.671875 C 175.949219 202.675781 179.371094 202.679688 182.6875 202.765625 C 182.753906 203.746094 182.769531 205.691406 182.671875 206.675781 L 180.84375 206.71875 L 180.820312 209.164062 L 178.816406 209.199219 L 178.789062 211.171875 L 175.867188 211.207031 C 175.859375 211.839844 175.863281 212.5 175.84375 213.128906 C 174.800781 213.136719 173.746094 213.136719 172.683594 213.136719 C 170.113281 213.140625 167.519531 213.144531 164.988281 213.203125 C 164.988281 213.347656 164.988281 213.496094 164.988281 213.644531 L 164.988281 213.667969 C 164.992188 214.234375 164.992188 214.839844 164.953125 215.371094 L 162.242188 215.390625 L 162.242188 217.105469 C 166.304688 217.003906 171.292969 217 175.363281 217.109375 C 175.363281 216.886719 175.363281 216.660156 175.363281 216.429688 C 175.359375 215.871094 175.355469 215.304688 175.367188 214.761719 L 178.242188 214.757812 L 178.246094 212.722656 C 179 212.707031 179.757812 212.699219 180.511719 212.691406 L 180.566406 210.398438 C 181.527344 210.320312 182.339844 210.335938 183.28125 210.351562 C 183.355469 210.355469 183.429688 210.355469 183.503906 210.359375 L 183.519531 207.457031 C 184.445312 207.441406 185.371094 207.429688 186.296875 207.425781 L 186.359375 205.972656 L 188.0625 206.011719 C 188.082031 204.484375 188.078125 202.957031 188.046875 201.429688 C 186.070312 201.453125 184.089844 201.449219 182.113281 201.421875 C 182.109375 201.253906 182.105469 201.082031 182.101562 200.910156 L 182.101562 200.894531 C 182.082031 200.195312 182.066406 199.441406 182.113281 198.789062 C 183.816406 198.738281 185.917969 198.695312 187.597656 198.851562 C 187.5625 199.476562 187.582031 200.023438 187.601562 200.636719 L 187.609375 200.792969 C 187.898438 200.792969 188.214844 200.785156 188.546875 200.78125 C 189.597656 200.765625 190.78125 200.75 191.671875 200.808594 L 191.675781 215.046875 C 191.082031 215.0625 190.359375 215.0625 189.777344 215.125 C 189.746094 215.792969 189.722656 216.460938 189.707031 217.132812 C 188.8125 217.167969 187.949219 217.15625 187.089844 217.144531 C 186.394531 217.132812 185.703125 217.125 185 217.140625 C 185 217.597656 184.992188 218.066406 184.988281 218.539062 C 184.972656 219.972656 184.957031 221.445312 185 222.832031 C 185.140625 222.828125 185.277344 222.828125 185.414062 222.824219 L 185.433594 222.824219 C 186.070312 222.808594 186.710938 222.796875 187.339844 222.8125 L 187.375 219.800781 C 188.21875 219.765625 189.058594 219.738281 189.902344 219.71875 C 189.929688 218.988281 189.949219 218.257812 189.96875 217.527344 C 190.53125 217.511719 191.089844 217.496094 191.652344 217.488281 L 191.707031 215.09375 C 192.460938 215.078125 193.21875 215.066406 193.972656 215.0625 C 194.015625 213.851562 194.011719 212.59375 193.992188 211.378906 C 193.960938 209.425781 193.96875 207.464844 193.980469 205.503906 L 193.980469 205.5 C 193.992188 203.59375 194 201.691406 193.972656 199.792969 L 191.601562 199.753906 C 191.589844 198.828125 191.59375 197.851562 191.558594 196.933594 C 189.253906 196.90625 186.902344 196.910156 184.546875 196.917969 L 184.539062 196.917969 C 181.125 196.921875 177.703125 196.929688 174.394531 196.84375 C 174.394531 196.6875 174.390625 196.523438 174.390625 196.363281 C 174.386719 195.925781 174.386719 195.476562 174.398438 195.054688 C 175.007812 195.09375 175.460938 195.085938 176.066406 195.074219 C 176.070312 194.839844 176.070312 194.589844 176.070312 194.332031 L 176.070312 194.304688 C 176.070312 193.765625 176.070312 193.199219 176.09375 192.71875 L 175.929688 192.3125 C 175.46875 192.285156 174.851562 192.304688 174.3125 192.324219 C 174.15625 192.328125 174.007812 192.335938 173.871094 192.339844 L 173.859375 194.199219 L 171.011719 194.199219 L 170.996094 191.050781 C 171.429688 191.066406 171.976562 191.058594 172.492188 191.050781 C 172.734375 191.046875 172.964844 191.042969 173.175781 191.042969 C 173.351562 188.375 173.304688 184.511719 173.246094 181.789062 C 172.582031 181.757812 171.867188 181.761719 171.171875 181.765625 L 171.152344 181.765625 C 170.910156 181.765625 170.671875 181.769531 170.4375 181.769531 C 170.40625 181.15625 170.417969 180.476562 170.425781 179.824219 L 170.425781 179.820312 C 170.425781 179.617188 170.429688 179.417969 170.433594 179.222656 L 167.625 179.222656 C 167.578125 178.5 167.585938 177.710938 167.59375 176.953125 L 167.59375 176.929688 C 167.597656 176.734375 167.597656 176.539062 167.601562 176.351562 L 165.027344 176.328125 C 165.015625 175.097656 165.015625 173.867188 165.023438 172.632812 C 165.839844 172.589844 166.578125 172.605469 167.386719 172.621094 L 167.390625 172.621094 L 167.523438 172.625 L 167.660156 175.386719 C 168.660156 175.355469 169.484375 175.355469 170.484375 175.386719 C 170.488281 175.988281 170.484375 176.597656 170.480469 177.207031 C 170.480469 177.492188 170.476562 177.777344 170.476562 178.058594 C 171.542969 178.046875 172.527344 178.035156 173.597656 178.074219 L 173.59375 180.238281 C 174.144531 180.171875 174.917969 180.171875 175.496094 180.15625 L 175.476562 177.34375 C 176.105469 177.3125 176.738281 177.328125 177.367188 177.339844 C 177.484375 177.339844 177.601562 177.34375 177.71875 177.34375 C 177.804688 174.789062 177.800781 172.09375 177.796875 169.453125 C 177.796875 168.46875 177.796875 167.492188 177.800781 166.53125 L 175.550781 166.546875 C 175.515625 165.441406 175.492188 164.328125 175.484375 163.222656 C 176.402344 163.199219 177.40625 163.214844 178.375 163.230469 L 178.394531 163.234375 C 178.761719 163.238281 179.128906 163.246094 179.480469 163.25 L 179.488281 160.089844 L 181.773438 160.042969 C 181.855469 159.332031 181.855469 158.3125 181.855469 157.449219 C 181.855469 157.214844 181.855469 156.992188 181.855469 156.789062 C 182.667969 156.734375 183.421875 156.753906 184.21875 156.769531 L 184.226562 156.769531 C 184.324219 156.773438 184.421875 156.777344 184.519531 156.777344 C 184.5 157.871094 184.507812 158.960938 184.539062 160.050781 C 185.5 160.097656 186.625 160.089844 187.605469 160.109375 C 187.601562 161.1875 187.605469 162.265625 187.625 163.34375 L 187.792969 163.34375 C 189.742188 163.3125 192.214844 163.277344 194.097656 163.386719 C 194.085938 164.238281 194.109375 165.144531 194.128906 166.035156 C 194.136719 166.429688 194.144531 166.820312 194.152344 167.203125 C 194.289062 167.203125 194.425781 167.203125 194.5625 167.199219 C 195.90625 167.191406 197.210938 167.183594 198.5625 167.253906 L 198.535156 170.292969 C 200.882812 170.269531 203.230469 170.265625 205.578125 170.28125 C 205.65625 168.96875 205.632812 167.21875 205.613281 165.640625 C 205.605469 165.035156 205.597656 164.457031 205.59375 163.9375 L 203.53125 163.941406 C 203.457031 163.207031 203.453125 162.304688 203.429688 161.546875 C 202.75 161.457031 201.917969 161.464844 201.21875 161.453125 L 201.199219 159.265625 C 200.398438 159.265625 199.597656 159.246094 198.796875 159.207031 L 198.773438 156.84375 C 197.757812 156.820312 196.742188 156.84375 195.707031 156.8125 C 195.578125 155.160156 195.601562 152.878906 195.621094 150.976562 L 195.621094 150.960938 C 195.625 150.566406 195.628906 150.1875 195.632812 149.832031 C 194.941406 149.78125 194.183594 149.789062 193.410156 149.796875 L 193.382812 149.796875 C 192.625 149.804688 191.851562 149.808594 191.101562 149.765625 C 191.089844 148.769531 191.09375 147.933594 191.148438 146.933594 C 191.644531 146.964844 192.195312 146.96875 192.71875 146.96875 C 192.867188 146.972656 193.015625 146.972656 193.160156 146.972656 C 193.214844 146.105469 193.214844 145.035156 193.214844 144.046875 L 193.214844 144.035156 C 193.210938 143.671875 193.210938 143.324219 193.214844 143 L 195.15625 143.015625 C 195.179688 142.425781 195.179688 141.777344 195.175781 141.148438 L 195.175781 141.113281 C 195.175781 140.867188 195.171875 140.625 195.171875 140.394531 C 194.355469 140.390625 193.539062 140.40625 192.722656 140.433594 C 192.71875 140.585938 192.707031 141.105469 192.660156 141.199219 C 192.09375 142.3125 189.730469 144.285156 188.683594 144.753906 C 188.636719 144.191406 188.636719 143.59375 188.636719 143.015625 C 188.636719 142.894531 188.640625 142.773438 188.640625 142.652344 C 188.398438 142.652344 188.054688 142.664062 187.667969 142.683594 L 187.652344 142.683594 C 186.644531 142.726562 185.363281 142.777344 184.996094 142.570312 C 184.589844 142.128906 184.628906 141.21875 184.664062 140.488281 C 184.667969 140.335938 184.675781 140.1875 184.675781 140.058594 Z M 183.738281 144.933594 L 183.90625 144.933594 C 185.414062 144.921875 186.894531 144.910156 188.257812 144.925781 C 188.257812 144.984375 188.261719 145.058594 188.265625 145.144531 C 188.292969 145.773438 188.34375 147.015625 188.144531 147.3125 C 187.414062 147.359375 186.328125 147.351562 185.367188 147.34375 L 185.226562 147.339844 L 185.179688 147.339844 C 184.828125 147.335938 184.496094 147.335938 184.210938 147.335938 C 181.410156 147.359375 178.609375 147.351562 175.808594 147.300781 C 175.820312 146.492188 175.820312 145.679688 175.808594 144.867188 C 178.1875 144.972656 180.988281 144.953125 183.707031 144.933594 Z M 169.238281 150.96875 L 169.402344 150.972656 L 169.4375 148.136719 C 170.164062 148.132812 170.890625 148.136719 171.621094 148.152344 C 172.054688 148.144531 173.308594 148.136719 173.695312 148.21875 C 173.566406 147.761719 173.699219 147.796875 173.949219 147.859375 C 174.132812 147.910156 174.378906 147.972656 174.628906 147.875 C 175.269531 147.628906 175.074219 148.503906 174.964844 148.816406 C 174.933594 148.886719 174.503906 148.890625 174.179688 148.894531 C 174.0625 148.894531 173.960938 148.898438 173.894531 148.902344 C 173.898438 149.097656 173.90625 149.304688 173.914062 149.519531 L 173.914062 149.527344 C 173.9375 150.15625 173.957031 150.835938 173.886719 151.394531 C 173.878906 151.453125 173.445312 151.453125 173.417969 151.453125 C 173.441406 150.945312 173.464844 148.960938 173.59375 148.597656 C 173.261719 148.648438 173.097656 148.644531 172.800781 148.632812 L 172.796875 148.632812 C 172.757812 148.632812 172.722656 148.628906 172.679688 148.628906 L 172.523438 148.65625 C 172.492188 148.660156 172.304688 148.6875 172.300781 148.71875 C 172.199219 149.484375 172.214844 150.691406 172.289062 151.453125 C 172.074219 151.871094 170.371094 151.832031 169.433594 151.804688 L 169.417969 151.804688 C 169.222656 151.800781 169.0625 151.796875 168.957031 151.796875 C 168.945312 152.765625 168.953125 153.5625 168.824219 154.527344 L 166.289062 154.53125 L 166.257812 157.832031 L 163.996094 157.851562 L 163.992188 162.007812 C 163.386719 162.035156 162.648438 162.015625 161.972656 161.996094 L 161.960938 161.996094 C 161.730469 161.988281 161.503906 161.984375 161.292969 161.980469 C 161.277344 160.316406 161.277344 158.652344 161.296875 156.992188 C 161.847656 156.941406 162.585938 156.957031 163.230469 156.96875 L 163.242188 156.972656 L 163.253906 156.972656 C 163.410156 156.976562 163.5625 156.976562 163.707031 156.980469 C 163.757812 156.292969 163.746094 155.421875 163.738281 154.636719 C 163.734375 154.398438 163.734375 154.167969 163.730469 153.957031 C 164.371094 153.9375 165.042969 153.941406 165.699219 153.949219 C 165.921875 153.949219 166.144531 153.953125 166.367188 153.953125 C 166.359375 152.960938 166.371094 151.96875 166.402344 150.972656 C 167.367188 150.933594 168.273438 150.953125 169.230469 150.96875 Z M 159.660156 151.25 C 159.648438 150.472656 159.652344 149.699219 159.671875 148.925781 C 159.890625 148.59375 160.835938 148.617188 161.441406 148.628906 C 161.574219 148.632812 161.6875 148.636719 161.777344 148.636719 C 161.714844 149.132812 161.722656 149.761719 161.730469 150.363281 L 161.730469 150.382812 C 161.734375 150.699219 161.738281 151.011719 161.730469 151.289062 C 161.609375 151.289062 161.472656 151.289062 161.332031 151.292969 C 160.78125 151.300781 160.117188 151.308594 159.660156 151.25 Z M 174.238281 177.042969 C 173.851562 177.042969 173.464844 177.042969 173.085938 177.039062 C 173.09375 176.109375 173.085938 175.105469 173.078125 174.078125 L 173.078125 173.949219 C 173.058594 171.882812 173.042969 169.730469 173.164062 167.894531 C 174.054688 167.859375 174.609375 167.847656 175.511719 167.894531 C 175.421875 169.714844 175.457031 171.640625 175.496094 173.546875 C 175.519531 174.730469 175.542969 175.910156 175.535156 177.050781 C 175.105469 177.046875 174.671875 177.046875 174.238281 177.042969 Z M 164.957031 181.28125 L 162.300781 181.28125 C 162.25 180.113281 162.238281 178.941406 162.265625 177.769531 C 163.285156 177.78125 163.894531 177.789062 164.910156 177.871094 C 164.917969 178.28125 164.917969 178.703125 164.917969 179.125 L 164.917969 179.148438 C 164.917969 179.871094 164.914062 180.597656 164.957031 181.28125 Z M 165.070312 183.5 L 165.066406 183.46875 L 165.066406 183.460938 C 165.03125 182.601562 164.972656 181.320312 165.019531 180.820312 C 165.242188 180.816406 165.445312 180.8125 165.636719 180.804688 C 166.335938 180.789062 166.863281 180.773438 167.714844 180.8125 C 167.726562 181.867188 167.722656 182.917969 167.710938 183.96875 C 168.816406 183.835938 169.34375 183.847656 170.464844 183.875 C 170.445312 184.328125 170.449219 184.785156 170.457031 185.242188 L 170.457031 185.257812 C 170.460938 185.792969 170.46875 186.328125 170.433594 186.859375 C 169.515625 186.90625 168.609375 186.902344 167.6875 186.90625 L 167.710938 184.011719 C 166.839844 184.046875 165.964844 184.058594 165.09375 184.050781 C 165.089844 183.910156 165.078125 183.71875 165.070312 183.5 Z M 165.070312 183.5 " fill-opacity="1" fill-rule="nonzero"/><path fill="#1b1919" d="M 159.671875 148.925781 L 159.578125 148.910156 C 159.453125 149.246094 158.390625 149.257812 157.644531 149.265625 C 157.421875 149.265625 157.226562 149.269531 157.09375 149.28125 C 157.097656 149.40625 157.101562 149.535156 157.105469 149.664062 C 157.125 150.148438 157.144531 150.652344 157.140625 151.113281 C 157.777344 151.0625 159.046875 151.066406 159.660156 151.25 C 159.648438 150.472656 159.652344 149.699219 159.671875 148.925781 Z M 159.671875 148.925781 " fill-opacity="1" fill-rule="nonzero"/><path fill="#1b1919" d="M 173.417969 151.453125 C 173.441406 150.945312 173.464844 148.960938 173.59375 148.597656 C 173.261719 148.648438 173.097656 148.644531 172.800781 148.632812 L 172.796875 148.632812 C 172.757812 148.632812 172.722656 148.628906 172.679688 148.628906 L 172.523438 148.65625 C 172.492188 148.660156 172.304688 148.6875 172.300781 148.71875 C 172.199219 149.484375 172.214844 150.691406 172.289062 151.453125 C 172.710938 151.398438 172.941406 151.414062 173.351562 151.449219 L 173.359375 151.449219 Z M 173.417969 151.453125 " fill-opacity="1" fill-rule="nonzero"/><path fill="#1b1919" d="M 107.042969 176.101562 C 103.84375 175.960938 98.601562 175.976562 95.390625 176.085938 C 95.398438 176.964844 95.394531 177.839844 95.375 178.71875 C 94.667969 178.757812 94.175781 178.765625 93.46875 178.742188 C 93.527344 179.484375 93.539062 180.019531 93.539062 180.761719 C 93.25 180.785156 92.882812 180.777344 92.515625 180.773438 L 92.5 180.773438 C 91.957031 180.761719 91.402344 180.75 91.058594 180.832031 L 90.917969 181.070312 C 90.949219 181.394531 90.960938 181.582031 90.964844 181.90625 L 90.96875 181.980469 C 91.03125 182.90625 91.054688 183.308594 90.96875 184.242188 L 88.71875 184.277344 C 88.722656 184.445312 88.726562 184.625 88.734375 184.808594 L 88.734375 184.824219 C 88.757812 185.445312 88.78125 186.136719 88.75 186.675781 L 85.914062 186.660156 C 85.898438 185.902344 85.894531 185.144531 85.90625 184.386719 C 85.128906 184.398438 84.292969 184.390625 83.527344 184.5 C 83.527344 184.640625 83.527344 184.785156 83.527344 184.929688 C 83.523438 185.488281 83.523438 186.085938 83.480469 186.605469 L 83.445312 186.601562 C 82.523438 186.589844 81.664062 186.578125 80.742188 186.613281 L 80.726562 188.320312 C 80.632812 188.320312 80.511719 188.320312 80.378906 188.316406 L 80.375 188.316406 C 79.617188 188.304688 78.328125 188.285156 77.835938 188.367188 C 77.832031 188.753906 77.824219 189.199219 77.785156 189.585938 C 77.765625 189.824219 77.753906 190.011719 77.75 190.253906 C 77.691406 190.921875 77.617188 191.625 77.574219 192.292969 C 77.453125 192.292969 77.28125 192.289062 77.078125 192.289062 L 77.058594 192.289062 C 76.410156 192.277344 75.496094 192.265625 75.175781 192.304688 L 75.179688 193.15625 C 75.222656 193.855469 75.222656 194.59375 75.226562 195.308594 C 75.226562 195.484375 75.226562 195.65625 75.226562 195.828125 C 78.410156 195.816406 81.589844 195.824219 84.773438 195.851562 L 84.804688 193.367188 C 84.96875 193.363281 85.1875 193.359375 85.441406 193.355469 C 86.753906 193.332031 89 193.292969 89.660156 193.425781 L 89.742188 193.722656 C 90.082031 193.828125 90.957031 193.820312 91.523438 193.816406 C 91.636719 193.816406 91.738281 193.8125 91.820312 193.8125 C 91.824219 193.769531 91.824219 193.71875 91.828125 193.660156 C 91.859375 193.0625 91.929688 191.753906 91.757812 191.421875 L 91.667969 191.21875 C 91.59375 190.941406 91.597656 190.582031 91.601562 190.261719 C 91.601562 190.195312 91.601562 190.128906 91.601562 190.066406 C 92.546875 190.039062 93.539062 190.042969 94.511719 190.046875 L 94.515625 190.046875 C 94.914062 190.046875 95.304688 190.050781 95.691406 190.046875 C 95.722656 189.433594 95.722656 188.738281 95.722656 188.070312 C 95.722656 187.796875 95.726562 187.523438 95.726562 187.265625 C 96.332031 187.214844 97.074219 187.214844 97.746094 187.21875 L 97.757812 187.21875 C 97.945312 187.21875 98.125 187.222656 98.296875 187.21875 L 98.3125 184.375 L 100.792969 184.324219 C 100.863281 183.617188 100.863281 182.738281 100.863281 181.945312 C 100.867188 181.726562 100.867188 181.515625 100.867188 181.316406 C 102.691406 181.226562 105.199219 181.269531 107.019531 181.3125 C 107.109375 179.714844 107.089844 177.707031 107.042969 176.101562 Z M 107.042969 176.101562 " fill-opacity="1" fill-rule="nonzero"/><path fill="#1b1919" d="M 91.617188 191.421875 C 91.679688 191.421875 91.730469 191.421875 91.757812 191.421875 L 91.667969 191.21875 C 91.632812 191.214844 91.59375 191.214844 91.554688 191.214844 L 91.546875 191.210938 C 91.289062 191.203125 90.917969 191.1875 90.710938 191.226562 L 90.632812 191.304688 L 90.625 191.25 C 90.609375 191.261719 90.59375 191.273438 90.582031 191.285156 C 90.550781 191.453125 91.28125 191.433594 91.617188 191.421875 Z M 91.617188 191.421875 " fill-opacity="1" fill-rule="nonzero"/><path fill="#1b1919" d="M 175.652344 181.480469 L 175.648438 181.480469 C 175.648438 181.96875 175.640625 182.546875 175.632812 183.1875 C 175.605469 185.699219 175.566406 189.105469 175.746094 191.132812 C 175.746094 191.125 175.8125 191.230469 175.867188 191.316406 C 175.90625 191.371094 175.9375 191.417969 175.941406 191.421875 C 176.085938 191.527344 176.082031 191.8125 176.074219 192.082031 C 176.074219 192.152344 176.074219 192.222656 176.074219 192.289062 C 176.148438 192.425781 176.203125 192.546875 176.269531 192.6875 C 176.597656 192.730469 177.53125 192.730469 177.902344 192.742188 C 177.839844 188.988281 177.816406 185.234375 177.832031 181.480469 C 177.089844 181.457031 176.394531 181.46875 175.652344 181.480469 Z M 175.652344 181.480469 " fill-opacity="1" fill-rule="nonzero"/><path fill="#1b1919" d="M 82.050781 214.65625 L 82.035156 214.65625 C 81.296875 214.648438 80.539062 214.640625 79.808594 214.703125 C 79.785156 215.421875 79.792969 216.15625 79.804688 216.882812 L 79.804688 216.945312 C 79.804688 217.027344 79.808594 217.105469 79.808594 217.183594 L 82.300781 217.207031 C 82.332031 216.316406 82.339844 215.550781 82.304688 214.65625 Z M 82.050781 214.65625 " fill-opacity="1" fill-rule="nonzero"/><path fill="#1b1919" d="M 68.917969 229.304688 C 68.015625 229.261719 67.28125 229.238281 66.375 229.292969 C 66.386719 230.117188 66.390625 230.941406 66.386719 231.769531 C 66.449219 231.769531 66.535156 231.769531 66.632812 231.769531 L 66.6875 231.769531 L 66.761719 231.773438 C 67.472656 231.78125 68.730469 231.800781 68.90625 231.660156 C 68.933594 230.886719 68.9375 230.078125 68.917969 229.304688 Z M 68.917969 229.304688 " fill-opacity="1" fill-rule="nonzero"/><path fill="#1b1919" d="M 76.324219 214.035156 C 75.398438 214 74.828125 213.992188 73.910156 214.035156 C 73.882812 214.941406 73.902344 215.5625 73.941406 216.457031 C 74.539062 216.488281 75.730469 216.542969 76.320312 216.484375 C 76.324219 216.273438 76.328125 216.0625 76.332031 215.851562 L 76.332031 215.847656 C 76.339844 215.242188 76.351562 214.640625 76.324219 214.035156 Z M 76.324219 214.035156 " fill-opacity="1" fill-rule="nonzero"/><path fill="#1b1919" d="M 149.515625 153.285156 C 148.972656 153.289062 148.429688 153.292969 147.902344 153.285156 L 147.933594 155.699219 C 148.863281 155.6875 149.519531 155.699219 150.4375 155.734375 L 150.445312 153.285156 C 150.140625 153.285156 149.828125 153.285156 149.515625 153.285156 Z M 149.515625 153.285156 " fill-opacity="1" fill-rule="nonzero"/><path fill="#1b1919" d="M 83.433594 179.234375 C 82.796875 179.230469 82.234375 179.226562 81.574219 179.265625 C 81.234375 179.386719 81.316406 180.667969 81.359375 181.367188 L 81.359375 181.371094 C 81.367188 181.507812 81.375 181.625 81.378906 181.703125 C 82.117188 181.738281 82.863281 181.738281 83.609375 181.761719 C 83.738281 181.460938 83.734375 180.320312 83.730469 179.621094 L 83.730469 179.613281 C 83.730469 179.585938 83.730469 179.554688 83.730469 179.527344 C 83.730469 179.414062 83.730469 179.3125 83.730469 179.238281 C 83.628906 179.238281 83.53125 179.238281 83.433594 179.234375 Z M 83.433594 179.234375 " fill-opacity="1" fill-rule="nonzero"/><path fill="#1b1919" d="M 147.570312 156.609375 C 146.753906 156.617188 146 156.613281 145.175781 156.636719 C 145.148438 157.4375 145.167969 158.25 145.148438 159.0625 C 145.800781 159.046875 146.433594 159.046875 147.078125 159.046875 L 147.523438 159.046875 C 147.570312 158.300781 147.570312 157.582031 147.570312 156.839844 Z M 147.570312 156.609375 " fill-opacity="1" fill-rule="nonzero"/><path fill="#1b1919" d="M 71.816406 233.035156 L 71.800781 233.03125 C 71.035156 233.003906 70.476562 232.988281 69.652344 233.015625 C 69.625 233.824219 69.636719 234.589844 69.652344 235.398438 L 69.652344 235.40625 C 70.453125 235.390625 71.253906 235.398438 72.054688 235.425781 C 72.089844 234.691406 72.070312 233.78125 72.050781 233.042969 C 71.96875 233.039062 71.890625 233.035156 71.816406 233.035156 Z M 71.816406 233.035156 " fill-opacity="1" fill-rule="nonzero"/><path fill="#1b1919" d="M 84.800781 218.90625 C 84.175781 218.914062 83.558594 218.910156 82.933594 218.925781 C 82.90625 218.929688 82.433594 218.972656 82.429688 219.023438 C 82.367188 219.535156 82.378906 220.179688 82.386719 220.761719 C 82.386719 220.96875 82.390625 221.164062 82.390625 221.34375 L 84.386719 221.359375 C 84.9375 221.375 84.859375 220.007812 84.816406 219.265625 C 84.808594 219.113281 84.800781 218.988281 84.800781 218.90625 Z M 84.800781 218.90625 " fill-opacity="1" fill-rule="nonzero"/><path fill="#1b1919" d="M 74.945312 190.886719 L 72.523438 190.898438 C 72.503906 191.6875 72.511719 192.480469 72.539062 193.269531 C 72.796875 193.269531 73.058594 193.269531 73.324219 193.269531 C 73.863281 193.265625 74.410156 193.265625 74.929688 193.253906 L 74.988281 192.71875 L 74.988281 192.707031 C 74.972656 192.546875 74.964844 192.476562 74.972656 192.308594 C 74.953125 191.835938 74.945312 191.363281 74.945312 190.886719 Z M 74.945312 190.886719 " fill-opacity="1" fill-rule="nonzero"/><path fill="#1b1919" d="M 161.371094 139.78125 C 160.574219 139.753906 159.773438 139.753906 158.976562 139.789062 C 158.980469 140.585938 158.976562 141.382812 158.964844 142.179688 C 159.773438 142.15625 160.515625 142.160156 161.320312 142.152344 C 161.390625 141.292969 161.394531 140.644531 161.371094 139.78125 Z M 161.371094 139.78125 " fill-opacity="1" fill-rule="nonzero"/><path fill="#1b1919" d="M 139.277344 161.683594 C 138.445312 161.65625 137.613281 161.652344 136.785156 161.671875 C 136.804688 162.464844 136.824219 163.179688 136.828125 163.980469 L 139.277344 164 C 139.296875 163.230469 139.296875 162.457031 139.277344 161.683594 Z M 139.277344 161.683594 " fill-opacity="1" fill-rule="nonzero"/><path fill="#1b1919" d="M 154.375 156.089844 C 153.554688 156.082031 152.738281 156.082031 151.917969 156.089844 C 151.96875 156.902344 151.984375 157.652344 152 158.464844 C 152.316406 158.464844 152.636719 158.464844 152.953125 158.460938 L 152.957031 158.460938 C 153.425781 158.453125 153.894531 158.449219 154.363281 158.460938 C 154.382812 157.667969 154.382812 156.878906 154.375 156.089844 Z M 154.375 156.089844 " fill-opacity="1" fill-rule="nonzero"/><path fill="#1b1919" d="M 158.472656 142.988281 C 157.730469 143.007812 156.980469 143.007812 156.234375 143.015625 C 156.042969 143.25 156.074219 144.324219 156.09375 144.992188 L 156.097656 145.03125 L 156.097656 145.066406 C 156.101562 145.203125 156.105469 145.320312 156.105469 145.40625 C 156.882812 145.394531 157.664062 145.394531 158.441406 145.40625 C 158.488281 144.632812 158.484375 143.769531 158.472656 142.988281 Z M 158.472656 142.988281 " fill-opacity="1" fill-rule="nonzero"/><path fill="#1b1919" d="M 155.125 139.472656 C 154.328125 139.445312 153.574219 139.453125 152.777344 139.460938 C 152.796875 139.878906 152.792969 140.347656 152.789062 140.8125 C 152.785156 141.171875 152.78125 141.535156 152.789062 141.875 C 153.632812 141.847656 154.234375 141.835938 155.078125 141.878906 C 155.171875 141.570312 155.140625 140.121094 155.125 139.582031 C 155.125 139.539062 155.125 139.503906 155.125 139.472656 Z M 155.125 139.472656 " fill-opacity="1" fill-rule="nonzero"/><path fill="#1b1919" d="M 98.355469 193.632812 C 97.457031 193.574219 96.871094 193.574219 95.960938 193.601562 C 95.960938 194.171875 95.96875 194.746094 95.976562 195.316406 C 95.980469 195.523438 95.984375 195.734375 95.984375 195.9375 C 96.777344 195.925781 97.566406 195.929688 98.355469 195.953125 C 98.398438 195.179688 98.398438 194.40625 98.355469 193.632812 Z M 98.355469 193.632812 " fill-opacity="1" fill-rule="nonzero"/><path fill="#1b1919" d="M 124.539062 162.53125 C 124.433594 162.535156 124.320312 162.539062 124.195312 162.539062 C 124.121094 163.105469 124.144531 164.332031 124.160156 164.914062 C 124.273438 164.917969 124.390625 164.921875 124.511719 164.925781 C 125.136719 164.941406 125.882812 164.960938 126.4375 164.933594 C 126.488281 164.105469 126.496094 163.367188 126.484375 162.535156 C 125.664062 162.507812 125.234375 162.515625 124.539062 162.53125 Z M 124.539062 162.53125 " fill-opacity="1" fill-rule="nonzero"/><path fill="#1b1919" d="M 167.394531 139.683594 C 166.613281 139.660156 165.835938 139.65625 165.054688 139.675781 C 165.058594 139.847656 165.058594 140.015625 165.058594 140.183594 C 165.0625 140.804688 165.0625 141.394531 165.109375 142.054688 L 167.386719 142.078125 C 167.410156 141.28125 167.414062 140.484375 167.394531 139.683594 Z M 167.394531 139.683594 " fill-opacity="1" fill-rule="nonzero"/><path fill="#1b1919" d="M 75.699219 229.203125 C 74.933594 229.195312 74.167969 229.199219 73.40625 229.21875 L 73.410156 231.667969 C 74.160156 231.65625 74.9375 231.65625 75.679688 231.640625 Z M 75.699219 229.203125 " fill-opacity="1" fill-rule="nonzero"/><path fill="#1b1919" d="M 169.984375 209.929688 C 169.183594 209.90625 168.507812 209.902344 167.710938 209.914062 C 167.703125 210.722656 167.707031 211.535156 167.726562 212.347656 L 169.980469 212.339844 C 169.996094 211.515625 170.003906 210.753906 169.984375 209.929688 Z M 169.984375 209.929688 " fill-opacity="1" fill-rule="nonzero"/><path fill="#1b1919" d="M 136.894531 165.074219 L 134.558594 165.085938 L 134.570312 167.449219 C 135.378906 167.425781 136.105469 167.425781 136.910156 167.433594 C 136.925781 166.648438 136.917969 165.863281 136.894531 165.074219 Z M 136.894531 165.074219 " fill-opacity="1" fill-rule="nonzero"/><path fill="#1b1919" d="M 153.03125 149.953125 L 151.699219 149.925781 C 151.355469 149.941406 151.011719 149.949219 150.667969 149.953125 L 150.675781 152.285156 C 151.078125 152.277344 151.484375 152.273438 151.886719 152.273438 C 152.066406 152.277344 152.222656 152.289062 152.355469 152.300781 C 152.792969 152.34375 153 152.363281 153.003906 151.847656 Z M 153.03125 149.953125 " fill-opacity="1" fill-rule="nonzero"/><path fill="#1b1919" d="M 148.46875 162.996094 C 147.679688 162.996094 146.886719 163 146.097656 163.011719 L 146.097656 163.054688 C 146.089844 163.46875 146.066406 165.152344 146.136719 165.425781 C 146.125 165.4375 146.128906 165.445312 146.148438 165.457031 C 146.144531 165.449219 146.140625 165.441406 146.136719 165.425781 C 146.273438 165.324219 148.328125 165.304688 148.402344 165.304688 C 148.410156 164.523438 148.449219 163.777344 148.46875 162.996094 Z M 148.46875 162.996094 " fill-opacity="1" fill-rule="nonzero"/><path fill="#1b1919" d="M 140.148438 167.441406 L 137.773438 167.449219 C 137.757812 168.214844 137.765625 168.984375 137.796875 169.75 C 138.539062 169.761719 139.332031 169.761719 140.078125 169.761719 C 140.15625 169.324219 140.152344 168.257812 140.148438 167.644531 C 140.148438 167.570312 140.148438 167.5 140.148438 167.441406 Z M 140.148438 167.441406 " fill-opacity="1" fill-rule="nonzero"/><path fill="#1b1919" d="M 87.464844 215.820312 C 87.027344 215.832031 86.589844 215.832031 86.152344 215.824219 C 85.8125 215.84375 85.46875 215.859375 85.125 215.875 C 85.121094 216.660156 85.125 217.449219 85.136719 218.234375 C 85.496094 218.144531 85.710938 218.148438 86.039062 218.148438 C 86.097656 218.148438 86.15625 218.148438 86.222656 218.148438 C 86.636719 218.152344 87.046875 218.152344 87.460938 218.148438 C 87.457031 217.375 87.457031 216.597656 87.464844 215.820312 Z M 87.464844 215.820312 " fill-opacity="1" fill-rule="nonzero"/><path fill="#1b1919" d="M 90.757812 180.449219 C 90.757812 180.199219 90.753906 179.953125 90.757812 179.707031 C 89.929688 179.703125 89.207031 179.71875 88.382812 179.738281 L 88.378906 179.738281 C 88.375 179.914062 88.375 180.097656 88.375 180.285156 C 88.371094 180.859375 88.367188 181.46875 88.316406 181.996094 C 88.492188 181.988281 88.671875 181.980469 88.847656 181.972656 C 89.492188 181.941406 90.132812 181.914062 90.78125 181.980469 C 90.757812 181.585938 90.757812 181.269531 90.761719 180.875 C 90.761719 180.734375 90.761719 180.589844 90.757812 180.449219 Z M 90.757812 180.449219 " fill-opacity="1" fill-rule="nonzero"/><path fill="#1b1919" d="M 123.191406 165.714844 C 122.617188 165.714844 122.089844 165.714844 121.480469 165.738281 C 121.214844 165.839844 121.292969 167.164062 121.328125 167.789062 C 121.335938 167.902344 121.339844 167.992188 121.34375 168.050781 C 122.054688 168.0625 122.773438 168.058594 123.488281 168.066406 C 123.679688 167.890625 123.640625 166.574219 123.621094 165.960938 C 123.617188 165.855469 123.613281 165.769531 123.613281 165.714844 C 123.46875 165.714844 123.328125 165.714844 123.191406 165.714844 Z M 123.191406 165.714844 " fill-opacity="1" fill-rule="nonzero"/><path fill="#1b1919" d="M 164.492188 142.734375 L 162.140625 142.757812 L 162.140625 145.019531 L 164.484375 145.019531 C 164.484375 144.660156 164.488281 144.304688 164.488281 143.949219 C 164.492188 143.546875 164.496094 143.140625 164.492188 142.734375 Z M 164.492188 142.734375 " fill-opacity="1" fill-rule="nonzero"/><path fill="#1b1919" d="M 62.8125 187.699219 C 62.042969 187.675781 61.273438 187.679688 60.503906 187.703125 C 60.496094 188.152344 60.5 188.601562 60.5 189.046875 L 60.5 189.066406 C 60.503906 189.371094 60.503906 189.679688 60.503906 189.984375 C 61.097656 189.988281 61.679688 189.976562 62.269531 189.96875 L 62.328125 189.964844 L 62.34375 189.964844 C 62.507812 189.960938 62.671875 189.960938 62.835938 189.957031 C 62.835938 189.882812 62.835938 189.808594 62.835938 189.734375 C 62.84375 189.027344 62.847656 188.429688 62.8125 187.699219 Z M 62.8125 187.699219 " fill-opacity="1" fill-rule="nonzero"/><path fill="#1b1919" d="M 141.824219 148.589844 C 140.980469 148.554688 140.332031 148.546875 139.480469 148.578125 C 139.480469 149.332031 139.503906 150.089844 139.515625 150.84375 C 140.332031 150.835938 140.980469 150.839844 141.800781 150.878906 C 141.851562 150.054688 141.851562 149.410156 141.824219 148.589844 Z M 141.824219 148.589844 " fill-opacity="1" fill-rule="nonzero"/><path fill="#1b1919" d="M 69.910156 194.371094 C 69.773438 194.371094 69.636719 194.375 69.5 194.375 C 69.503906 195.140625 69.527344 195.902344 69.546875 196.667969 C 69.742188 196.667969 69.953125 196.667969 70.175781 196.671875 L 70.203125 196.671875 C 70.753906 196.675781 71.34375 196.679688 71.804688 196.644531 C 71.863281 195.796875 71.847656 195.210938 71.816406 194.375 C 71.148438 194.363281 70.550781 194.367188 69.910156 194.371094 Z M 69.910156 194.371094 " fill-opacity="1" fill-rule="nonzero"/><path fill="#1b1919" d="M 144.851562 159.921875 L 142.484375 159.925781 C 142.480469 160.292969 142.484375 160.65625 142.492188 161.019531 L 142.492188 161.027344 C 142.496094 161.410156 142.5 161.792969 142.496094 162.183594 C 142.542969 162.1875 142.597656 162.1875 142.652344 162.1875 L 142.660156 162.1875 C 143.28125 162.203125 144.316406 162.226562 144.816406 162.167969 L 144.820312 162.113281 L 144.820312 162.101562 C 144.84375 161.367188 144.863281 160.65625 144.851562 159.921875 Z M 144.851562 159.921875 " fill-opacity="1" fill-rule="nonzero"/><path fill="#1b1919" d="M 68.785156 191.171875 C 68.003906 191.167969 67.21875 191.179688 66.441406 191.207031 C 66.414062 191.605469 66.414062 192.050781 66.410156 192.5 C 66.410156 192.816406 66.410156 193.128906 66.398438 193.429688 C 67.199219 193.417969 67.929688 193.414062 68.730469 193.433594 C 68.816406 193.042969 68.792969 191.609375 68.785156 191.171875 Z M 68.785156 191.171875 " fill-opacity="1" fill-rule="nonzero"/><path fill="#1b1919" d="M 55.839844 186.917969 C 54.96875 186.875 54.445312 186.863281 53.570312 186.898438 C 53.570312 187.667969 53.574219 188.4375 53.589844 189.207031 C 54.332031 189.222656 55.078125 189.230469 55.820312 189.230469 C 55.851562 188.460938 55.855469 187.691406 55.839844 186.917969 Z M 55.839844 186.917969 " fill-opacity="1" fill-rule="nonzero"/><path fill="#1b1919" d="M 61.953125 181.726562 L 61.949219 181.726562 C 61.34375 181.722656 60.800781 181.71875 60.15625 181.742188 C 59.902344 181.882812 59.964844 183.070312 60 183.703125 C 60.007812 183.835938 60.015625 183.945312 60.015625 184.015625 C 60.195312 184.015625 60.367188 184.015625 60.539062 184.015625 C 61.070312 184.015625 61.585938 184.015625 62.136719 184.03125 C 62.390625 183.910156 62.351562 182.742188 62.328125 182.085938 C 62.324219 181.933594 62.320312 181.808594 62.320312 181.730469 C 62.195312 181.730469 62.074219 181.730469 61.953125 181.726562 Z M 61.953125 181.726562 " fill-opacity="1" fill-rule="nonzero"/><path fill="#1b1919" d="M 139.089844 151.535156 C 138.285156 151.53125 137.613281 151.53125 136.8125 151.601562 C 136.796875 152.011719 136.796875 152.464844 136.800781 152.917969 L 136.800781 153.03125 C 136.800781 153.3125 136.800781 153.589844 136.796875 153.851562 C 136.84375 153.851562 136.898438 153.851562 136.957031 153.855469 L 136.980469 153.855469 C 137.570312 153.871094 138.664062 153.898438 139.078125 153.863281 Z M 139.089844 151.535156 " fill-opacity="1" fill-rule="nonzero"/><path fill="#1b1919" d="M 131.347656 165.492188 C 130.582031 165.484375 129.8125 165.484375 129.042969 165.496094 C 129.03125 165.941406 129.03125 166.378906 129.035156 166.8125 L 129.035156 166.855469 C 129.035156 167.160156 129.035156 167.46875 129.03125 167.78125 C 129.800781 167.769531 130.53125 167.777344 131.296875 167.789062 C 131.339844 167.546875 131.34375 166.671875 131.34375 166.042969 C 131.347656 165.808594 131.347656 165.609375 131.347656 165.492188 Z M 131.347656 165.492188 " fill-opacity="1" fill-rule="nonzero"/><path fill="#1b1919" d="M 90.253906 205.425781 C 89.472656 205.425781 88.773438 205.4375 87.996094 205.453125 C 87.980469 206.210938 87.976562 206.964844 87.984375 207.722656 C 88.761719 207.75 89.492188 207.742188 90.273438 207.726562 C 90.277344 206.957031 90.269531 206.191406 90.253906 205.425781 Z M 90.253906 205.425781 " fill-opacity="1" fill-rule="nonzero"/><path fill="#1b1919" d="M 75.339844 224.402344 C 74.6875 224.402344 74.085938 224.40625 73.414062 224.449219 C 73.40625 225.210938 73.40625 225.976562 73.414062 226.738281 L 75.675781 226.746094 C 75.6875 225.964844 75.6875 225.183594 75.679688 224.398438 Z M 75.339844 224.402344 " fill-opacity="1" fill-rule="nonzero"/><path fill="#1b1919" d="M 144.242188 140.34375 C 143.664062 140.324219 143.085938 140.316406 142.507812 140.324219 C 142.484375 140.328125 142.457031 140.328125 142.429688 140.328125 C 142.292969 140.328125 142.09375 140.332031 142.015625 140.398438 C 141.960938 140.550781 141.996094 142.308594 142.003906 142.664062 L 142.003906 142.691406 C 142.636719 142.679688 143.242188 142.664062 143.875 142.660156 C 143.882812 142.660156 143.894531 142.664062 143.90625 142.664062 C 143.980469 142.667969 144.128906 142.675781 144.148438 142.625 C 144.28125 142.320312 144.257812 141.074219 144.246094 140.542969 L 144.246094 140.539062 C 144.246094 140.453125 144.242188 140.386719 144.242188 140.34375 Z M 144.242188 140.34375 " fill-opacity="1" fill-rule="nonzero"/><path fill="#1b1919" d="M 90.078125 212.699219 C 89.34375 212.667969 88.605469 212.667969 87.867188 212.699219 C 87.847656 213.480469 87.851562 214.246094 87.828125 215.035156 C 88.519531 215.011719 89.039062 215.011719 89.660156 215.011719 L 89.691406 215.011719 C 89.816406 215.011719 89.941406 215.011719 90.078125 215.011719 C 90.128906 214.242188 90.128906 213.46875 90.078125 212.699219 Z M 90.078125 212.699219 " fill-opacity="1" fill-rule="nonzero"/><path fill="#1b1919" d="M 152.207031 142.632812 L 149.921875 142.660156 L 149.902344 144.953125 C 150.65625 144.941406 151.425781 144.949219 152.175781 144.9375 C 152.203125 144.167969 152.210938 143.402344 152.207031 142.632812 Z M 152.207031 142.632812 " fill-opacity="1" fill-rule="nonzero"/><path fill="#1b1919" d="M 77.136719 198.742188 C 76.332031 198.71875 75.679688 198.726562 74.882812 198.734375 C 74.875 199.496094 74.878906 200.257812 74.894531 201.019531 L 74.976562 201.019531 C 75.703125 201.027344 76.40625 201.03125 77.132812 201.011719 C 77.171875 200.253906 77.171875 199.496094 77.136719 198.742188 Z M 77.136719 198.742188 " fill-opacity="1" fill-rule="nonzero"/><path fill="#1b1919" d="M 65.773438 196.394531 C 65.796875 195.777344 65.84375 194.453125 65.65625 194.34375 C 64.941406 194.355469 64.207031 194.34375 63.5 194.386719 C 63.496094 194.460938 63.492188 194.566406 63.488281 194.695312 C 63.460938 195.320312 63.410156 196.464844 63.632812 196.644531 C 64.195312 196.632812 64.6875 196.640625 65.210938 196.648438 L 65.261719 196.648438 C 65.425781 196.652344 65.59375 196.65625 65.765625 196.660156 C 65.769531 196.605469 65.769531 196.515625 65.773438 196.394531 Z M 65.773438 196.394531 " fill-opacity="1" fill-rule="nonzero"/><path fill="#1b1919" d="M 155.613281 146.335938 C 154.828125 146.335938 154.136719 146.347656 153.351562 146.371094 C 153.328125 147.152344 153.335938 147.898438 153.34375 148.679688 C 153.988281 148.648438 154.992188 148.675781 155.5625 148.617188 C 155.589844 147.855469 155.609375 147.097656 155.613281 146.335938 Z M 155.613281 146.335938 " fill-opacity="1" fill-rule="nonzero"/><path fill="#1b1919" d="M 94.269531 208.507812 C 93.515625 208.511719 92.761719 208.527344 92.007812 208.554688 C 92 209.308594 92 210.0625 92.003906 210.820312 L 94.28125 210.816406 Z M 94.269531 208.507812 " fill-opacity="1" fill-rule="nonzero"/><path fill="#1b1919" d="M 130.085938 159.148438 L 128.695312 159.117188 C 128.550781 159.125 127.886719 159.132812 127.875 159.214844 C 127.820312 159.578125 127.84375 160.78125 127.855469 161.296875 C 127.855469 161.363281 127.859375 161.414062 127.859375 161.457031 L 129.519531 161.472656 L 129.574219 161.472656 C 129.871094 161.480469 130.007812 161.484375 130.070312 161.417969 C 130.125 161.359375 130.121094 161.246094 130.117188 161.03125 C 130.113281 160.949219 130.109375 160.851562 130.109375 160.738281 C 130.113281 160.207031 130.105469 159.675781 130.085938 159.148438 Z M 130.085938 159.148438 " fill-opacity="1" fill-rule="nonzero"/><path fill="#1b1919" d="M 89.414062 194.539062 C 88.6875 194.519531 88.117188 194.515625 87.390625 194.546875 C 87.011719 194.585938 87.082031 195.761719 87.121094 196.441406 C 87.132812 196.597656 87.136719 196.726562 87.140625 196.808594 L 89.214844 196.835938 C 89.507812 196.816406 89.453125 195.53125 89.425781 194.867188 C 89.417969 194.722656 89.414062 194.605469 89.414062 194.539062 Z M 89.414062 194.539062 " fill-opacity="1" fill-rule="nonzero"/><path fill="#1b1919" d="M 133.894531 162.386719 C 133.152344 162.375 132.410156 162.378906 131.667969 162.398438 L 131.667969 164.707031 C 132.460938 164.6875 133.074219 164.679688 133.867188 164.722656 C 133.898438 163.921875 133.914062 163.1875 133.894531 162.386719 Z M 133.894531 162.386719 " fill-opacity="1" fill-rule="nonzero"/><path fill="#1b1919" d="M 65.515625 232.613281 C 64.789062 232.613281 64.144531 232.613281 63.40625 232.65625 L 63.390625 234.921875 C 63.878906 234.945312 64.375 234.945312 64.871094 234.949219 C 65.132812 234.949219 65.390625 234.953125 65.648438 234.957031 C 65.671875 234.175781 65.679688 233.394531 65.667969 232.613281 Z M 65.515625 232.613281 " fill-opacity="1" fill-rule="nonzero"/><path fill="#1b1919" d="M 79.410156 220.195312 C 79.4375 219.625 79.507812 218.109375 79.296875 218.003906 C 78.855469 218.027344 78.402344 218.03125 77.949219 218.03125 C 77.707031 218.03125 77.464844 218.03125 77.226562 218.039062 C 77.226562 218.113281 77.222656 218.21875 77.214844 218.34375 C 77.183594 218.984375 77.132812 220.132812 77.339844 220.351562 C 78.054688 220.351562 78.6875 220.347656 79.40625 220.363281 C 79.40625 220.324219 79.410156 220.269531 79.410156 220.195312 Z M 79.410156 220.195312 " fill-opacity="1" fill-rule="nonzero"/><path fill="#1b1919" d="M 146.941406 151.265625 C 146.453125 151.257812 145.964844 151.257812 145.476562 151.269531 C 145.347656 151.28125 144.730469 151.296875 144.703125 151.367188 C 144.582031 151.667969 144.617188 152.878906 144.632812 153.375 L 144.632812 153.386719 C 144.636719 153.433594 144.636719 153.472656 144.636719 153.503906 C 145.175781 153.496094 145.710938 153.5 146.246094 153.503906 C 146.261719 153.503906 146.285156 153.503906 146.316406 153.507812 C 146.5 153.515625 146.910156 153.53125 146.917969 153.460938 C 146.957031 153.09375 146.949219 152.148438 146.945312 151.585938 C 146.945312 151.453125 146.941406 151.34375 146.941406 151.265625 Z M 146.941406 151.265625 " fill-opacity="1" fill-rule="nonzero"/><path fill="#1b1919" d="M 74.539062 179.328125 C 73.671875 179.289062 73.144531 179.300781 72.28125 179.332031 C 72.273438 180.074219 72.269531 180.820312 72.277344 181.566406 C 73.03125 181.5625 73.789062 181.566406 74.542969 181.574219 C 74.550781 180.824219 74.546875 180.074219 74.539062 179.328125 Z M 74.539062 179.328125 " fill-opacity="1" fill-rule="nonzero"/><path fill="#1b1919" d="M 93.238281 176.648438 C 92.449219 176.625 91.789062 176.621094 91.003906 176.648438 C 90.992188 177.40625 90.988281 178.164062 90.992188 178.917969 C 91.078125 178.917969 91.164062 178.917969 91.246094 178.914062 C 91.933594 178.90625 92.609375 178.898438 93.300781 178.921875 C 93.226562 178.457031 93.230469 177.773438 93.238281 177.183594 L 93.238281 177.15625 C 93.238281 176.972656 93.238281 176.800781 93.238281 176.648438 Z M 93.238281 176.648438 " fill-opacity="1" fill-rule="nonzero"/><path fill="#1b1919" d="M 65.59375 224.507812 C 64.910156 224.484375 64.226562 224.480469 63.546875 224.496094 C 63.3125 224.625 63.363281 225.839844 63.390625 226.484375 C 63.394531 226.617188 63.398438 226.726562 63.398438 226.796875 C 64.09375 226.820312 64.773438 226.816406 65.464844 226.8125 L 65.535156 226.8125 C 65.664062 226.285156 65.621094 225.21875 65.597656 224.597656 Z M 65.59375 224.507812 " fill-opacity="1" fill-rule="nonzero"/><path fill="#1b1919" d="M 149.550781 148.207031 C 148.761719 148.199219 148.109375 148.199219 147.316406 148.234375 C 147.273438 148.976562 147.300781 149.691406 147.269531 150.449219 C 147.484375 150.449219 147.6875 150.449219 147.886719 150.449219 L 147.898438 150.449219 C 148.449219 150.449219 148.957031 150.445312 149.566406 150.476562 C 149.558594 149.984375 149.5625 149.496094 149.578125 149.003906 C 149.585938 148.789062 149.570312 148.566406 149.558594 148.347656 C 149.558594 148.300781 149.554688 148.253906 149.550781 148.207031 Z M 149.550781 148.207031 " fill-opacity="1" fill-rule="nonzero"/><path fill="#1b1919" d="M 60.183594 190.925781 C 59.402344 190.902344 58.855469 190.914062 58.070312 190.941406 C 57.757812 191.058594 57.855469 192.277344 57.902344 192.867188 C 57.910156 192.957031 57.917969 193.035156 57.917969 193.085938 C 58.636719 193.125 59.351562 193.15625 60.070312 193.179688 C 60.25 192.984375 60.214844 191.882812 60.191406 191.257812 C 60.1875 191.117188 60.183594 191.003906 60.183594 190.925781 Z M 60.183594 190.925781 " fill-opacity="1" fill-rule="nonzero"/><path fill="#1b1919" d="M 136.210938 154.625 C 135.539062 154.625 134.867188 154.632812 134.195312 154.648438 C 133.886719 155.140625 133.949219 156.09375 133.992188 156.742188 L 133.992188 156.746094 C 133.996094 156.8125 134 156.878906 134.003906 156.9375 C 134.699219 156.925781 135.324219 156.917969 136.015625 156.933594 C 136.335938 156.859375 136.265625 155.601562 136.226562 154.9375 C 136.21875 154.804688 136.214844 154.695312 136.210938 154.625 Z M 136.210938 154.625 " fill-opacity="1" fill-rule="nonzero"/><path fill="#1b1919" d="M 70.417969 216.1875 C 69.601562 216.164062 69.027344 216.148438 68.210938 216.179688 C 68.183594 216.9375 68.1875 217.695312 68.222656 218.453125 L 70.417969 218.480469 C 70.429688 217.71875 70.433594 216.953125 70.417969 216.1875 Z M 70.417969 216.1875 " fill-opacity="1" fill-rule="nonzero"/><path fill="#1b1919" d="M 55.851562 194.105469 C 55.097656 194.082031 54.34375 194.078125 53.585938 194.09375 C 53.585938 194.207031 53.585938 194.320312 53.585938 194.429688 C 53.585938 195.054688 53.585938 195.660156 53.621094 196.292969 C 54.359375 196.3125 55.101562 196.316406 55.84375 196.320312 C 55.90625 195.417969 55.902344 195.003906 55.851562 194.105469 Z M 55.851562 194.105469 " fill-opacity="1" fill-rule="nonzero"/><path fill="#1b1919" d="M 97.152344 205.1875 C 96.394531 205.179688 95.636719 205.175781 94.882812 205.226562 C 94.867188 205.953125 94.863281 206.679688 94.875 207.40625 C 95.667969 207.398438 96.367188 207.394531 97.160156 207.414062 L 97.167969 207.285156 C 97.152344 206.585938 97.164062 205.890625 97.152344 205.1875 Z M 97.152344 205.1875 " fill-opacity="1" fill-rule="nonzero"/><path fill="#1b1919" d="M 77.285156 176.398438 C 76.769531 176.375 76.257812 176.363281 75.746094 176.367188 C 75.613281 176.375 75.097656 176.390625 75.074219 176.453125 C 74.976562 176.707031 75.003906 177.796875 75.015625 178.355469 L 75.015625 178.363281 C 75.019531 178.476562 75.023438 178.566406 75.023438 178.621094 L 76.742188 178.605469 C 76.746094 178.605469 76.753906 178.605469 76.765625 178.609375 L 76.769531 178.609375 C 76.867188 178.617188 77.207031 178.640625 77.21875 178.574219 C 77.328125 178 77.304688 177.21875 77.289062 176.601562 L 77.289062 176.59375 C 77.289062 176.527344 77.285156 176.460938 77.285156 176.398438 Z M 77.285156 176.398438 " fill-opacity="1" fill-rule="nonzero"/><path fill="#1b1919" d="M 81.660156 203.324219 L 81.558594 203.324219 C 81.570312 203.832031 81.574219 204.363281 81.574219 204.890625 C 81.574219 205.132812 81.574219 205.375 81.574219 205.609375 C 82.292969 205.628906 83.011719 205.640625 83.726562 205.636719 L 83.730469 205.542969 C 83.75 204.773438 83.761719 204.152344 83.734375 203.371094 L 83.53125 203.355469 C 82.90625 203.292969 82.285156 203.308594 81.660156 203.324219 Z M 81.660156 203.324219 " fill-opacity="1" fill-rule="nonzero"/><path fill="#1b1919" d="M 71.757812 188.15625 C 71.425781 188.148438 71.089844 188.144531 70.757812 188.144531 C 70.308594 188.152344 69.929688 188.175781 69.488281 188.203125 C 69.496094 188.925781 69.496094 189.644531 69.488281 190.367188 C 69.851562 190.371094 70.214844 190.371094 70.574219 190.367188 L 71.75 190.375 Z M 71.757812 188.15625 " fill-opacity="1" fill-rule="nonzero"/><path fill="#1b1919" d="M 77.179688 207.3125 C 76.425781 207.292969 75.738281 207.296875 74.988281 207.300781 C 74.980469 208.046875 74.992188 208.792969 75.03125 209.535156 C 75.742188 209.570312 76.492188 209.566406 77.210938 209.585938 C 77.226562 208.792969 77.230469 208.105469 77.179688 207.3125 Z M 77.179688 207.3125 " fill-opacity="1" fill-rule="nonzero"/><path fill="#1b1919" d="M 77.507812 188.015625 C 77.097656 187.949219 75.726562 188.03125 75.351562 188.050781 C 75.351562 188.28125 75.351562 188.507812 75.351562 188.726562 C 75.351562 189.234375 75.351562 189.730469 75.332031 190.253906 C 75.480469 190.25 75.683594 190.253906 75.917969 190.253906 C 76.511719 190.261719 77.265625 190.269531 77.582031 190.21875 C 77.53125 189.757812 77.539062 189.457031 77.550781 189.042969 L 77.550781 189.039062 C 77.550781 188.960938 77.554688 188.882812 77.554688 188.800781 C 77.546875 188.609375 77.539062 188.488281 77.546875 188.304688 L 77.546875 188.269531 C 77.546875 188.1875 77.546875 188.023438 77.507812 188.015625 Z M 77.507812 188.015625 " fill-opacity="1" fill-rule="nonzero"/><path fill="#1b1919" d="M 71.746094 182.421875 C 70.984375 182.402344 70.222656 182.402344 69.460938 182.417969 C 69.441406 183.136719 69.445312 183.851562 69.472656 184.566406 C 69.640625 184.570312 69.816406 184.570312 69.996094 184.570312 L 70.050781 184.570312 C 70.59375 184.574219 71.171875 184.574219 71.667969 184.5625 Z M 71.746094 182.421875 " fill-opacity="1" fill-rule="nonzero"/><path fill="#1b1919" d="M 84.085938 176.433594 L 84.011719 176.4375 C 83.964844 177.019531 83.960938 177.582031 83.960938 178.15625 C 83.960938 178.324219 83.957031 178.492188 83.957031 178.664062 C 84.835938 178.632812 85.230469 178.601562 86.082031 178.4375 C 86.253906 178.195312 86.230469 177.253906 86.21875 176.707031 C 86.214844 176.597656 86.214844 176.503906 86.214844 176.433594 C 85.34375 176.378906 84.929688 176.398438 84.085938 176.433594 Z M 84.085938 176.433594 " fill-opacity="1" fill-rule="nonzero"/><path fill="#1b1919" d="M 142.199219 164.476562 C 141.992188 164.261719 141.546875 164.273438 140.625 164.300781 C 140.46875 164.304688 140.296875 164.3125 140.109375 164.316406 C 140.109375 165.046875 140.117188 165.78125 140.136719 166.515625 L 142.328125 166.539062 C 142.332031 166.292969 142.339844 166.074219 142.347656 165.882812 C 142.378906 165.089844 142.398438 164.679688 142.199219 164.476562 Z M 142.199219 164.476562 " fill-opacity="1" fill-rule="nonzero"/><path fill="#1b1919" d="M 93.039062 201.871094 C 92.265625 201.839844 91.644531 201.84375 90.871094 201.859375 C 90.867188 202.59375 90.863281 203.324219 90.867188 204.058594 L 93.03125 204.074219 C 93.074219 203.234375 93.074219 202.703125 93.039062 201.871094 Z M 93.039062 201.871094 " fill-opacity="1" fill-rule="nonzero"/><path fill="#1b1919" d="M 64.730469 178.773438 C 64.03125 178.730469 63.527344 178.730469 62.832031 178.746094 C 62.449219 178.828125 62.511719 179.90625 62.550781 180.589844 C 62.5625 180.757812 62.570312 180.902344 62.570312 181.003906 C 63.242188 180.992188 63.863281 180.984375 64.539062 180.996094 C 64.8125 180.902344 64.765625 179.691406 64.738281 179.066406 C 64.734375 178.941406 64.730469 178.839844 64.730469 178.773438 Z M 64.730469 178.773438 " fill-opacity="1" fill-rule="nonzero"/><path fill="#1b1919" d="M 134.246094 168.265625 C 133.476562 168.261719 132.753906 168.257812 131.980469 168.269531 L 131.992188 170.386719 C 132.710938 170.390625 133.433594 170.390625 134.15625 170.386719 C 134.203125 169.652344 134.234375 169.003906 134.246094 168.265625 Z M 134.246094 168.265625 " fill-opacity="1" fill-rule="nonzero"/><path fill="#1b1919" d="M 79.402344 184.785156 C 79.398438 184.648438 79.394531 184.542969 79.394531 184.476562 C 78.742188 184.488281 78.191406 184.492188 77.542969 184.535156 C 77.21875 184.65625 77.234375 185.667969 77.242188 186.324219 L 77.242188 186.332031 C 77.246094 186.5 77.25 186.644531 77.246094 186.742188 L 79.199219 186.75 C 79.464844 186.6875 79.421875 185.429688 79.402344 184.785156 Z M 79.402344 184.785156 " fill-opacity="1" fill-rule="nonzero"/><path fill="#1b1919" d="M 99.351562 201.902344 C 98.625 201.890625 98.027344 201.886719 97.296875 201.925781 C 97.257812 202.480469 97.257812 203.003906 97.261719 203.539062 L 97.261719 203.5625 C 97.261719 203.742188 97.261719 203.921875 97.261719 204.105469 L 99.363281 204.109375 C 99.382812 203.355469 99.386719 202.65625 99.351562 201.902344 Z M 99.351562 201.902344 " fill-opacity="1" fill-rule="nonzero"/><path fill="#1b1919" d="M 140.042969 157.324219 L 139.890625 157.328125 C 139.878906 157.773438 139.886719 158.257812 139.894531 158.738281 C 139.902344 158.988281 139.90625 159.238281 139.90625 159.480469 C 140.601562 159.492188 141.292969 159.492188 141.988281 159.519531 L 141.996094 157.285156 C 141.339844 157.285156 140.730469 157.304688 140.082031 157.324219 Z M 140.042969 157.324219 " fill-opacity="1" fill-rule="nonzero"/><path fill="#1b1919" d="M 86.933594 182.144531 C 86.859375 182.152344 86.808594 182.152344 86.78125 182.152344 C 86.179688 182.179688 85.90625 182.191406 85.792969 182.332031 C 85.699219 182.445312 85.714844 182.652344 85.742188 183.03125 C 85.761719 183.277344 85.785156 183.589844 85.789062 184 C 86.328125 184 86.839844 183.980469 87.378906 183.964844 C 87.972656 184.019531 87.929688 183.734375 87.871094 183.355469 C 87.824219 183.046875 87.769531 182.675781 88.042969 182.378906 C 88.347656 182.050781 87.34375 182.117188 86.933594 182.144531 Z M 86.933594 182.144531 " fill-opacity="1" fill-rule="nonzero"/><path fill="#1b1919" d="M 136.339844 159.746094 C 135.851562 159.734375 135.40625 159.734375 134.917969 159.742188 C 134.878906 159.746094 134.484375 159.769531 134.472656 159.828125 C 134.398438 160.199219 134.398438 160.65625 134.394531 161.082031 C 134.394531 161.25 134.394531 161.414062 134.390625 161.5625 C 134.902344 161.558594 135.414062 161.554688 135.921875 161.558594 C 135.949219 161.558594 135.980469 161.5625 136.007812 161.5625 C 136.113281 161.574219 136.214844 161.582031 136.296875 161.527344 C 136.410156 161.324219 136.355469 160.035156 136.339844 159.746094 Z M 136.339844 159.746094 " fill-opacity="1" fill-rule="nonzero"/><path fill="#1b1919" d="M 145.808594 166.292969 C 145.097656 166.269531 144.6875 166.285156 143.984375 166.320312 C 143.960938 166.914062 143.96875 167.503906 143.957031 168.101562 C 144.5625 168.09375 145.179688 168.085938 145.785156 168.09375 C 145.898438 167.925781 145.851562 167.113281 145.824219 166.609375 L 145.824219 166.597656 C 145.816406 166.46875 145.808594 166.363281 145.808594 166.292969 Z M 145.808594 166.292969 " fill-opacity="1" fill-rule="nonzero"/><path fill="#1b1919" d="M 144.1875 154.5625 C 143.710938 154.554688 143.234375 154.5625 142.757812 154.582031 C 142.359375 154.644531 142.402344 155.511719 142.433594 156.121094 L 142.433594 156.148438 L 142.4375 156.15625 C 142.441406 156.308594 142.449219 156.441406 142.445312 156.539062 L 143.734375 156.546875 C 143.742188 156.546875 143.753906 156.550781 143.769531 156.550781 C 143.867188 156.554688 144.109375 156.5625 144.121094 156.527344 C 144.21875 156.195312 144.199219 155.253906 144.191406 154.765625 C 144.191406 154.683594 144.1875 154.617188 144.1875 154.5625 Z M 144.1875 154.5625 " fill-opacity="1" fill-rule="nonzero"/><path fill="#1b1919" d="M 81.351562 182.117188 C 80.734375 182.089844 80.230469 182.109375 79.621094 182.171875 C 79.609375 182.730469 79.609375 183.292969 79.613281 183.851562 C 80.191406 183.839844 80.699219 183.828125 81.28125 183.789062 C 81.359375 183.214844 81.359375 182.9375 81.351562 182.453125 L 81.351562 182.445312 C 81.351562 182.347656 81.351562 182.238281 81.351562 182.117188 Z M 81.351562 182.117188 " fill-opacity="1" fill-rule="nonzero"/><path fill="#1b1919" d="M 144.070312 168.257812 C 143.5625 168.273438 143.050781 168.292969 142.539062 168.320312 C 142.507812 168.953125 142.523438 169.335938 142.574219 169.949219 C 143.066406 169.953125 143.558594 169.9375 144.050781 169.910156 C 144.050781 169.359375 144.058594 168.808594 144.070312 168.257812 Z M 144.070312 168.257812 " fill-opacity="1" fill-rule="nonzero"/><path fill="#fefefe" d="M 150.703125 157.035156 C 150.753906 156.679688 150.8125 156.289062 150.941406 156.183594 C 150.851562 156.085938 150.765625 156.023438 150.640625 155.972656 L 150.527344 155.925781 C 150.519531 156.179688 150.445312 156.394531 150.371094 156.59375 C 150.25 156.9375 150.144531 157.234375 150.441406 157.613281 C 150.589844 157.800781 150.640625 157.441406 150.703125 157.035156 Z M 150.703125 157.035156 " fill-opacity="0.075" fill-rule="nonzero"/><path fill="#fefefe" d="M 77.792969 189.375 C 77.804688 189.074219 77.824219 188.671875 77.554688 188.800781 C 77.554688 188.882812 77.550781 188.960938 77.550781 189.039062 L 77.550781 189.042969 C 77.539062 189.457031 77.53125 189.757812 77.582031 190.21875 L 77.75 190.253906 C 77.753906 190.011719 77.765625 189.824219 77.785156 189.585938 C 77.785156 189.53125 77.789062 189.464844 77.789062 189.386719 Z M 77.792969 189.375 " fill-opacity="0.031" fill-rule="nonzero"/><path fill="#fefefe" d="M 157.632812 166.101562 C 157.585938 166.601562 157.582031 166.839844 157.628906 167.339844 C 157.710938 167.304688 157.796875 167.273438 157.882812 167.242188 C 157.902344 167.007812 157.910156 166.820312 157.914062 166.589844 L 157.691406 166.503906 Z M 157.632812 166.101562 " fill-opacity="0.765" fill-rule="nonzero"/><path fill="#fefefe" d="M 150.941406 156.183594 C 152.25 156.277344 151.511719 155.710938 150.527344 155.925781 L 150.640625 155.972656 C 150.765625 156.023438 150.851562 156.085938 150.941406 156.183594 Z M 150.941406 156.183594 " fill-opacity="0.463" fill-rule="nonzero"/><path fill="#fefefe" d="M 90.917969 181.070312 C 90.816406 180.988281 90.816406 180.996094 90.761719 180.875 C 90.757812 181.269531 90.757812 181.585938 90.78125 181.980469 L 90.964844 181.90625 C 90.960938 181.582031 90.949219 181.394531 90.917969 181.070312 Z M 90.917969 181.070312 " fill-opacity="0.208" fill-rule="nonzero"/><path fill="#fefefe" d="M 77.601562 188.316406 C 77.582031 188.3125 77.5625 188.308594 77.546875 188.304688 C 77.539062 188.488281 77.546875 188.609375 77.554688 188.800781 C 77.824219 188.671875 77.804688 189.074219 77.792969 189.375 L 77.789062 189.386719 C 77.789062 189.464844 77.785156 189.53125 77.785156 189.585938 C 77.824219 189.199219 77.832031 188.753906 77.835938 188.367188 C 77.765625 188.367188 77.675781 188.339844 77.601562 188.316406 Z M 77.601562 188.316406 " fill-opacity="0.494" fill-rule="nonzero"/><path fill="#fefefe" d="M 75.175781 192.304688 L 75.074219 192.339844 C 75.078125 192.351562 75.078125 192.363281 75.078125 192.375 C 75.082031 192.523438 75.085938 192.585938 74.988281 192.71875 L 74.929688 193.253906 L 75.179688 193.15625 Z M 75.175781 192.304688 " fill-opacity="0.247" fill-rule="nonzero"/><path fill="#1b1919" d="M 176.269531 192.6875 C 176.203125 192.546875 176.148438 192.425781 176.074219 192.289062 L 175.929688 192.3125 L 176.09375 192.71875 Z M 176.269531 192.6875 " fill-opacity="1" fill-rule="nonzero"/><path fill="#c1c2c5" d="M 97.25 207.285156 C 97.21875 207.285156 97.191406 207.285156 97.167969 207.285156 L 97.160156 207.414062 C 97.171875 207.417969 97.183594 207.421875 97.199219 207.429688 L 97.203125 207.429688 C 97.324219 207.472656 97.550781 207.550781 97.625 207.414062 C 97.589844 207.289062 97.390625 207.289062 97.25 207.285156 Z M 97.25 207.285156 " fill-opacity="0.38" fill-rule="nonzero"/><path fill="#fefefe" d="M 75.074219 192.339844 L 74.972656 192.308594 C 74.964844 192.476562 74.972656 192.546875 74.988281 192.707031 L 74.988281 192.71875 C 75.085938 192.585938 75.082031 192.523438 75.078125 192.375 C 75.078125 192.363281 75.078125 192.351562 75.074219 192.339844 Z M 75.074219 192.339844 " fill-opacity="0.459" fill-rule="nonzero"/></svg>