<?xml version="1.0" encoding="utf-8" ?><svg xmlns="http://www.w3.org/2000/svg" xmlns:xlink="http://www.w3.org/1999/xlink" width="966" height="966" viewBox="0 0 966 966"><rect fill="#FFFEFA" fill-opacity="0" width="966" height="966"/><clipPath id="cl_7"><rect width="965.59631" height="965.59631"/></clipPath><g clip-path="url(#cl_7)"><path fill="#FFFEFB" transform="translate(303 405)" d="M5.76904 88.1348Q5.76904 79.895 8.8208 72.9675Q11.8726 66.04 16.9995 61.1572Q27.5586 51.2085 42.9395 51.2085Q57.832 51.2085 66.5601 61.0962Q74.9219 70.5566 74.9219 85.7544Q74.9219 103.027 64.0576 114.624Q53.3765 125.916 37.7515 125.916Q22.3706 125.916 13.7646 114.99Q5.76904 104.919 5.76904 88.1348ZM40.498 118.164Q45.1367 118.164 48.7073 116.516Q52.2778 114.868 54.9023 111.45Q60.6396 104.187 60.6396 90.4541Q60.6396 75.8057 55.0244 67.1997Q49.3481 58.5938 39.5825 58.5938Q30.9766 58.5938 25.6055 65.3076Q19.6851 72.6929 19.6851 86.4868Q19.6851 100.83 25.2393 109.375Q30.9155 118.164 40.498 118.164ZM158.176 113.892L158.665 113.831L158.97 113.831L158.787 121.399L140.842 126.038Q138.218 121.948 137.363 116.455Q130.771 121.948 120.09 125Q116.428 126.038 112.552 126.038Q108.677 126.038 104.862 124.756Q101.047 123.474 98.2397 120.85Q92.3193 115.295 92.3193 104.614L92.8076 70.1294Q92.8076 64.0259 90.9155 62.2559Q89.5117 60.9741 85.1172 60.5469L86.0327 54.5654L107.029 51.1475L105.808 62.5Q104.526 74.2188 104.526 98.1445Q104.526 107.91 107.273 111.816Q109.958 115.784 116.794 115.784Q122.959 115.784 127.476 114.014Q134.678 111.084 136.57 108.765L136.448 108.826L136.448 70.7397Q136.448 64.3311 133.945 62.5Q131.992 60.9741 125.217 60.8521L126.133 54.5654L149.753 51.1475Q149.57 54.3213 149.387 56.6406L149.143 60.73Q149.021 62.7441 148.899 64.3616Q148.777 65.979 148.716 67.749Q148.594 71.2891 148.594 77.3315L148.594 106.384Q148.594 112.244 149.601 113.525Q150.608 114.807 151.493 114.929Q152.378 115.051 153.416 115.051L153.965 115.051Q155.857 115.051 158.176 113.892ZM207.19 112L209.875 117.188Q203.833 122.803 194.434 125.122Q191.443 125.916 188.147 125.916Q184.851 125.916 182.074 125.183Q179.297 124.451 177.466 122.681Q173.926 119.263 173.56 110.535L173.56 61.7065L162.939 61.7065L163.428 55.481Q171.973 53.9551 175.269 49.0723Q177.893 45.166 179.724 33.6304L186.377 33.6304L186.377 52.3682L208.899 52.3682L208.899 61.7065L185.889 61.7065L185.889 103.455Q185.889 111.084 188.086 113.525Q189.917 115.54 195.715 115.54Q201.514 115.54 207.19 112ZM263.589 51.6968Q263.772 52.7954 263.772 55.6641Q263.772 58.5327 263.101 62.7441L261.819 71.3501L254.25 71.3501Q254.128 64.1479 251.016 61.2793Q247.842 58.3496 240.823 58.3496Q232.644 58.3496 230.142 63.8428Q229.348 65.7349 229.348 68.2068Q229.348 70.6787 230.538 72.5708Q231.729 74.4629 233.682 76.0498Q236.855 78.6133 241.311 80.5664L248.574 83.8013Q266.946 92.3462 267.19 104.187Q267.312 114.197 259.438 120.3Q252.297 125.916 242.104 125.916Q237.222 125.916 231.667 124.756Q222.817 122.986 221.475 122.986L219.155 122.986Q218.24 122.986 217.568 123.108Q217.812 111.511 218.728 104.065L226.663 104.065Q226.968 111.572 230.721 115.051Q234.475 118.53 242.654 118.53Q251.931 118.53 254.312 113.281Q255.166 111.389 255.166 108.307Q255.166 105.225 253.549 102.966Q251.931 100.708 249.52 99.1211Q247.109 97.5342 244.271 96.3745Q241.433 95.2148 238.351 93.7805Q235.269 92.3462 231.576 90.3931Q227.883 88.4399 224.893 85.8154Q218.057 79.7729 217.935 71.3501Q217.812 61.9507 225.991 56.2744Q233.376 51.2085 243.386 51.2085Q246.194 51.2085 249.246 51.6968Q254.983 52.6123 257.363 52.6123Q259.744 52.6123 263.589 51.6968ZM314.128 115.112Q324.016 115.112 334.209 109.558L336.528 114.502Q333.599 117.798 328.655 120.483Q318.34 126.038 310.741 126.038Q303.142 126.038 297.069 123.688Q290.996 121.338 286.541 116.943Q277.202 107.666 277.202 92.1021Q277.202 73.1812 288.494 61.7676Q298.931 51.2085 314.678 51.2085Q323.284 51.2085 331.89 53.833L333.538 54.3213Q334.331 54.5654 334.941 54.6875Q335.43 55.6641 335.43 59.082Q335.43 62.5 335.277 64.4226Q335.125 66.3452 334.911 68.1152Q334.697 69.8853 334.453 71.2891L334.087 73.4863Q333.721 74.0967 330.303 74.0967Q326.152 74.0967 324.871 73.5474Q324.871 66.2842 323.07 63.6292Q321.27 60.9741 318.553 59.7534Q315.837 58.5327 311.412 58.5327Q306.987 58.5327 303.203 60.3943Q299.419 62.2559 296.55 65.918Q290.325 73.9746 290.325 87.7686Q290.325 107.483 303.63 113.159Q308.086 115.112 314.128 115.112ZM402.815 71.8384L401.838 104.248Q401.838 110.779 405.806 113.647Q408.552 115.662 412.825 115.662Q412.581 118.774 410.322 121.277Q406.355 125.671 403.853 126.343Q400.068 126.343 396.742 123.779Q393.416 121.216 391.584 116.272Q384.626 122.864 374.556 125.61Q371.748 126.404 367.994 126.404Q364.241 126.404 359.999 124.969Q355.757 123.535 352.888 120.911Q347.09 115.601 347.09 106.445Q347.09 95.3369 359.541 89.1724Q371.138 83.4351 390.059 83.4351L390.73 83.4351Q390.73 79.5898 390.608 75.9277L390.547 73.4863Q390.242 66.1011 385.237 62.2559Q381.27 59.2041 375.471 59.2041Q369.673 59.2041 366.133 62.2864Q362.593 65.3687 362.593 71.167Q362.593 73.3032 363.081 75.7446L352.156 75.7446L351.729 75.6226Q351.545 74.646 351.362 73.5474Q350.813 70.9229 350.477 68.0847Q350.142 65.2466 350.142 64.3311Q350.142 62.9883 350.63 62.3779Q366.438 51.2085 381.575 51.2085Q396.345 51.2085 401.045 61.9507Q402.815 65.918 402.815 71.8384ZM390.059 106.628Q390.486 98.938 390.669 90.1489Q389.998 89.9048 386.61 89.9048Q383.223 89.9048 378.065 90.9729Q372.908 92.041 369.062 94.0552Q360.884 98.3887 360.884 105.652Q360.884 110.718 364.18 114.136Q367.537 117.554 372.847 117.554Q379.438 117.554 386.396 111.633Q388.472 109.863 390.059 107.91L390.059 106.628ZM439.927 20.9351Q438.645 27.5879 438.645 47.6685L438.645 52.063L438.767 110.474Q438.767 115.479 439.5 116.699Q440.659 118.53 443.589 118.53Q447.678 118.53 450.73 117.859L449.753 125L414.414 125L415.452 118.53Q421.799 118.53 423.6 117.126Q425.4 115.723 425.919 114.227Q426.438 112.732 426.438 110.535L426.438 41.687Q426.438 36.499 425.797 35.2173Q425.156 33.9355 424.637 33.2947Q424.119 32.6538 423.051 32.2571Q421.982 31.8604 420.579 31.7383Q418.625 31.4941 414.109 31.4941L414.841 24.5361L439.927 20.9351ZM491.26 115.479Q503.345 114.685 512.561 109.68L515.247 114.807Q506.03 122.437 494.25 125.244Q490.71 126.038 487.781 126.038Q464.771 126.038 458.789 105.713Q456.836 99.1821 456.836 90.4846Q456.836 81.7871 459.674 74.4629Q462.512 67.1387 467.181 61.9812Q471.851 56.8237 477.893 54.0161Q483.936 51.2085 490.405 51.2085Q516.345 51.2085 516.345 80.8716L516.345 81.4819Q516.345 89.2334 514.514 89.2334L469.592 89.2334Q469.592 101.99 475.238 108.643Q480.884 115.295 491.26 115.479ZM502.429 81.4209Q502.49 80.1392 502.49 79.4678L502.49 77.4536Q502.49 63.1104 494.556 59.8145Q491.687 58.5938 488.422 58.5938Q485.156 58.5938 482.898 59.5703Q480.64 60.5469 478.656 62.2559Q476.672 63.9648 475.024 66.2537Q473.376 68.5425 472.156 71.2891Q469.592 76.9653 469.592 82.8857L502.429 81.4209ZM553.762 52.7344Q558.401 51.2085 564.535 51.2085Q570.669 51.2085 577.017 52.9175L577.017 51.6968Q577.017 37.2925 576.528 35.7971Q576.04 34.3018 575.338 33.6304Q574.636 32.959 573.507 32.4707Q572.378 31.9824 571.035 31.7383Q569.326 31.4941 565.115 31.4941L563.955 31.4941L564.871 24.5361L590.261 20.9961Q590.261 21.5454 590.17 21.9116Q590.078 22.2778 589.895 23.5901Q589.712 24.9023 589.529 28.0762Q589.041 36.5601 589.041 50.9033L589.041 106.567Q589.041 111.328 590.109 113.281Q591.177 115.234 593.13 115.234Q595.693 115.234 598.989 114.075L600.759 113.525Q600.637 114.258 600.546 115.57Q600.454 116.882 600.332 118.286Q600.21 119.69 600.149 121.338L580.984 126.099Q580.312 125.793 579.122 122.375Q577.932 118.958 577.505 117.371Q569.753 122.864 561.025 125.122Q557.974 125.916 553.64 125.916Q549.307 125.916 544.18 123.718Q539.053 121.521 535.33 117.188Q527.212 107.971 527.212 91.7358Q527.212 81.1157 532.095 71.5942Q539.419 57.251 553.762 52.7344ZM558.157 114.746Q561.575 114.624 564.749 113.953Q567.922 113.281 570.486 112.427Q575.918 110.657 577.139 109.436L577.017 109.497L577.017 65.1245Q574.331 61.0962 566.702 59.4482Q564.504 58.96 560.964 58.96Q557.424 58.96 553.304 60.5774Q549.185 62.1948 546.255 65.8569Q540.151 73.4863 540.151 89.7827Q540.151 100.769 545.706 108.032Q551.016 114.929 558.157 114.746ZM606.987 117.126Q606.987 113.159 609.856 110.352Q612.786 107.544 616.753 107.544Q620.72 107.544 623.65 110.352Q626.519 113.159 626.519 117.126Q626.519 121.033 623.65 123.901Q620.781 126.77 616.753 126.77Q612.725 126.77 609.856 123.901Q606.987 121.033 606.987 117.126Z"/><path fill="#FFFEFB" transform="matrix(0.481023 0 0 0.481023 31.2172 346.885)" d="M430.858 157.615C420.054 157.231 405.712 157.262 394.865 157.53L394.866 157.566L394.867 157.61L394.868 157.645C394.916 160.16 394.959 162.397 394.837 164.929C391.974 165.189 388.908 165.018 385.887 165.256C385.953 167.176 385.937 168.993 385.915 170.915L378.461 170.947C378.489 173.682 378.481 176.416 378.439 179.15C376.669 179.272 374.255 179.18 372.166 179.1C371.573 179.078 371.006 179.056 370.487 179.041L370.429 173.768C368.18 173.782 365.933 173.824 363.687 173.895L363.647 181.319C363.315 182.216 360.47 182.247 358.475 182.269C357.875 182.275 357.352 182.281 356.997 182.308C357.009 182.646 357.022 182.99 357.035 183.339C357.084 184.63 357.134 185.981 357.13 187.222C357.069 187.581 357.038 187.851 357.015 188.066C356.944 188.7 356.927 188.855 356.306 189.42C355.34 189.72 354.347 189.686 353.264 189.649L353.257 189.649L353.228 189.648C352.407 189.62 351.533 189.591 350.582 189.707C350.572 192.602 350.633 195.873 350.696 199.227L350.697 199.272L350.7 199.491L350.701 199.525L350.703 199.633C350.81 205.392 350.921 211.35 350.702 216.009L341.454 216.03L341.39 210.293C339.251 210.258 337.11 210.252 334.97 210.277L334.944 216.583C335.24 216.576 335.599 216.565 335.997 216.552C337.791 216.494 340.381 216.411 341.566 216.632C341.801 217.169 341.76 217.39 341.677 217.85L341.677 217.852L341.677 217.854C341.657 217.963 341.635 218.086 341.614 218.23C340.695 219.42 339.212 219.288 337.694 219.152C337.199 219.108 336.7 219.064 336.217 219.064C336.372 223.668 336.422 228.274 336.367 232.88L329.342 232.957L329.423 238.756C330.783 238.753 332.167 238.748 333.567 238.742L333.568 238.742L333.57 238.742C339.541 238.717 345.793 238.692 351.548 238.94C351.581 236.258 351.584 233.574 351.56 230.892C352.755 230.857 357.533 230.834 358.428 230.662C358.305 229.328 358.316 228.686 358.447 227.355C358.385 225.4 358.33 223.583 358.348 221.614C360.473 221.622 361.643 221.336 362.884 221.032C363.912 220.78 364.987 220.517 366.695 220.399C366.706 220.829 366.717 221.242 366.729 221.646L366.729 221.646C366.785 223.616 366.833 225.339 366.701 227.455C364.239 227.399 361.776 227.424 359.315 227.529C359.271 227.903 359.231 228.278 359.196 228.653C359.183 229.277 359.164 229.775 359.111 230.402C359.286 233.294 359.44 236.912 359.14 239.807C356.715 239.826 354.29 239.832 351.864 239.824C351.865 240.29 351.867 240.76 351.871 241.229C351.878 242.383 351.885 243.544 351.867 244.68C348.919 244.601 344.684 244.576 341.737 244.746L341.705 250.569L335.872 250.568C335.872 250.904 335.874 251.246 335.877 251.594L335.877 251.632C335.882 252.87 335.888 254.158 335.806 255.343L298.66 255.278C296.885 255.277 294.975 255.293 293.018 255.31L293.015 255.31L293.012 255.31C288.501 255.35 283.732 255.391 279.744 255.222L279.722 250.696C270.72 250.298 257.69 250.423 248.548 250.603C248.548 251.161 248.552 251.742 248.556 252.334L248.556 252.371L248.556 252.409C248.567 254.005 248.578 255.674 248.505 257.155C245.885 257.194 242.896 257.189 240.314 257.365C240.287 259.546 240.313 261.996 240.197 264.152C238.054 264.404 236.077 264.404 233.968 264.403C233.683 264.403 233.394 264.403 233.102 264.404C233.107 264.708 233.117 265.028 233.125 265.36L233.125 265.37L233.125 265.38C233.168 266.988 233.217 268.837 233.032 270.274C231.315 270.306 229.021 270.287 227.361 270.471C227.371 270.888 227.384 271.324 227.398 271.772L227.399 271.815C227.449 273.481 227.502 275.293 227.408 276.806C226.727 276.808 226.018 276.805 225.294 276.802L225.267 276.802L224.872 276.8C222.669 276.79 220.362 276.78 218.329 276.862C218.308 277.772 218.312 278.974 218.316 280.243L218.317 280.279L218.317 280.344L218.317 280.373C218.324 282.587 218.331 284.983 218.21 286.395C216.13 286.383 214.372 286.392 212.3 286.524L212.389 311.432C212.41 313.168 212.442 314.931 212.475 316.704C212.561 321.327 212.646 326.023 212.528 330.537C210.049 330.616 207.461 330.592 205.027 330.694C205.034 331.341 205.045 332.013 205.056 332.694C205.086 334.424 205.116 336.217 205.068 337.841C202.869 337.787 200.67 337.778 198.472 337.818L198.475 342.517C197.969 342.513 197.44 342.505 196.897 342.498C194.913 342.471 192.755 342.442 190.939 342.577C190.927 343.318 190.927 344.187 190.928 345.096L190.928 345.151C190.928 347.059 190.928 349.144 190.807 350.617L184.355 350.69C184.36 351.828 184.374 353.039 184.387 354.289C184.435 358.306 184.486 362.709 184.239 366.287L179.728 366.379L179.681 371.371C177.479 371.268 175.778 371.333 173.566 371.43C173.432 373.41 173.206 375.773 173.152 377.725C171.498 377.766 169.648 377.771 168.014 377.863C167.981 379.66 167.981 381.601 167.886 383.383L161.339 383.543C161.338 384.02 161.34 384.517 161.342 385.028L161.343 385.056L161.343 385.098L161.343 385.114C161.351 386.988 161.36 389.025 161.217 390.73C157.698 390.728 154.179 390.765 150.66 390.84L150.625 397.581C149.764 397.593 148.88 397.593 147.995 397.592L147.887 397.592C146.67 397.591 145.452 397.589 144.29 397.624L144.28 413.176L151.68 413.189L151.716 407.139L159.464 407.103L159.495 398.6C160.837 398.645 162.163 398.645 163.49 398.645L163.588 398.645C164.606 398.644 165.625 398.644 166.651 398.664L166.705 389.97L174.037 389.904C174.039 389.198 174.032 388.412 174.024 387.594C174.003 385.552 173.981 383.309 174.116 381.619L175.079 381.612C176.43 381.6 177.791 381.59 179.133 381.642L179.337 377.224L184.205 377.208L184.311 371.184L191.647 371.143L191.731 363.695C193.691 363.647 196.227 363.658 198.139 363.501L198.179 358.425C198.835 358.418 199.494 358.408 200.154 358.397C201.697 358.373 203.248 358.35 204.778 358.352C204.781 355.745 204.802 353.139 204.84 350.532C209.9 350.455 216.214 350.387 221.265 350.588L221.324 344.039C222.516 343.936 223.875 343.784 225.057 343.758L225.11 337.433L229.123 337.497C228.891 338.924 228.905 340.71 228.918 342.294L228.918 342.307C228.92 342.62 228.922 342.925 228.922 343.219C235.609 343.195 242.296 343.234 248.981 343.336L249.06 336.848L255.156 336.799L255.202 331.38C257.031 331.324 258.859 331.29 260.688 331.281L260.706 324.197L266.387 324.18L266.45 314.177C265.982 314.177 265.507 314.176 265.031 314.173L264.945 314.173C263.564 314.169 262.159 314.164 260.815 314.209C260.789 316.316 260.804 318.619 260.69 320.705L256.012 320.817C255.983 322.598 255.997 324.586 255.815 326.34C253.881 326.373 251.946 326.393 250.013 326.396C250.01 326.908 250.01 327.443 250.01 327.988C250.01 329.381 250.01 330.837 249.946 332.126C248.289 332.179 246.6 332.214 244.948 332.289C244.958 332.7 244.971 333.125 244.985 333.557C245.024 334.808 245.065 336.119 245.045 337.291C239.973 337.32 234.901 337.288 229.83 337.195C229.824 336.46 229.817 335.723 229.809 334.983L229.807 334.765L229.804 334.544C229.79 333.109 229.776 331.672 229.781 330.248C234.364 330.184 238.948 330.211 243.529 330.333L243.549 324.689L248.111 324.648C248.188 322.529 248.228 320.41 248.229 318.29L249.24 318.279L249.243 318.279L249.248 318.279C251.397 318.256 253.546 318.233 255.696 318.305L255.723 310.291C255.946 310.284 256.166 310.277 256.388 310.271L256.43 310.27C258.084 310.22 259.712 310.171 261.377 310.225C261.383 309.705 261.385 309.164 261.387 308.612C261.394 306.96 261.401 305.213 261.503 303.685C261.881 303.676 262.267 303.666 262.66 303.654L262.722 303.653C264.314 303.61 266.005 303.565 267.501 303.658C267.505 303.917 267.509 304.176 267.512 304.439L267.512 304.442L267.512 304.446C267.558 307.596 267.606 310.979 267.319 314.056C271.182 313.845 276.168 313.869 280.064 314.041L280.056 318.862C282.064 318.862 284.162 318.844 286.292 318.827L286.361 318.827C291.295 318.788 296.407 318.747 301.002 318.904L301.061 325.273L358.926 325.317C359.018 323.273 359.085 321.228 359.126 319.181L366.621 319.145L366.67 312.534C366.305 312.52 365.929 312.502 365.549 312.486C364.505 312.439 363.423 312.39 362.432 312.395C362.425 311.677 362.412 310.875 362.396 310.031C362.352 307.518 362.302 304.643 362.425 302.583C362.688 302.578 362.949 302.573 363.209 302.567L363.218 302.567L363.225 302.567C364.592 302.538 365.948 302.509 367.319 302.586L367.326 310.359C367.706 310.357 368.108 310.351 368.525 310.346L368.574 310.344L368.63 310.344C370.317 310.323 372.206 310.3 373.686 310.457C373.689 310.941 373.694 311.428 373.698 311.918C373.71 313.029 373.72 314.149 373.711 315.246C374.152 315.241 374.616 315.231 375.094 315.222L375.109 315.222L375.127 315.222C376.983 315.185 379.043 315.144 380.708 315.286L380.841 319.971C383.092 319.988 385.384 319.981 387.632 320.029L387.631 325.243C391.196 325.262 394.803 325.266 398.429 325.271C407.487 325.284 416.653 325.295 425.533 325.526C425.703 328.144 425.755 333.36 425.486 335.988L420.591 336.107L420.531 342.657L415.16 342.748L415.09 348.033L407.271 348.124C407.251 349.821 407.256 351.585 407.206 353.276C404.409 353.29 401.584 353.293 398.748 353.297C391.862 353.306 384.911 353.315 378.142 353.473C378.141 353.857 378.142 354.252 378.143 354.655L378.143 354.667L378.143 354.715C378.148 356.235 378.153 357.854 378.047 359.271L370.782 359.324L370.783 363.921C381.666 363.643 395.024 363.638 405.922 363.933C405.922 363.332 405.917 362.723 405.914 362.111C405.905 360.616 405.897 359.102 405.93 357.642L413.627 357.629L413.633 352.184C415.658 352.144 417.684 352.118 419.709 352.105L419.853 345.965C422.428 345.747 424.604 345.79 427.116 345.84C427.314 345.845 427.513 345.848 427.715 345.852L427.757 338.085C430.236 338.038 432.717 338.008 435.196 337.997L435.361 334.107L439.921 334.211C439.977 330.121 439.965 326.031 439.884 321.942Q431.937 322.036 423.991 321.921C423.983 321.478 423.972 321.02 423.96 320.553L423.959 320.51C423.914 318.636 423.866 316.625 423.989 314.873C428.548 314.744 434.183 314.62 438.679 315.048C438.584 316.716 438.635 318.184 438.693 319.82L438.707 320.244C439.486 320.238 440.335 320.225 441.22 320.212C444.032 320.169 447.2 320.122 449.582 320.28L449.602 358.409C448.004 358.449 446.073 358.448 444.519 358.615C444.434 360.407 444.368 362.199 444.321 363.992C441.927 364.092 439.617 364.058 437.318 364.024C435.46 363.997 433.608 363.97 431.726 364.014C431.719 365.242 431.705 366.493 431.692 367.757L431.692 367.761C431.653 371.598 431.612 375.544 431.725 379.252C432.094 379.245 432.463 379.238 432.834 379.23L432.885 379.228C434.586 379.195 436.303 379.161 437.989 379.204L438.082 371.134C440.337 371.039 442.594 370.966 444.851 370.919C444.919 368.961 444.978 367.005 445.027 365.049C446.529 365.005 448.03 364.969 449.531 364.942L449.681 358.534C451.702 358.49 453.726 358.461 455.747 358.451C455.86 355.208 455.855 351.838 455.8 348.59C455.712 343.353 455.74 338.103 455.768 332.852L455.768 332.847L455.768 332.843C455.795 327.743 455.822 322.647 455.743 317.566L449.394 317.461C449.364 314.983 449.377 312.37 449.286 309.905C443.11 309.836 436.815 309.849 430.509 309.862L430.496 309.862L430.483 309.862C421.344 309.88 412.18 309.898 403.32 309.67C403.32 309.246 403.316 308.813 403.314 308.377C403.307 307.206 403.3 306.011 403.331 304.877C404.964 304.984 406.177 304.964 407.806 304.928C407.813 304.302 407.813 303.629 407.813 302.942L407.813 302.865C407.813 301.42 407.813 299.911 407.877 298.621L407.432 297.531C406.198 297.457 404.549 297.515 403.107 297.567C402.692 297.58 402.294 297.594 401.927 297.605L401.897 302.585L394.264 302.583L394.223 294.152C395.384 294.199 396.855 294.176 398.231 294.153C398.875 294.143 399.498 294.132 400.058 294.13C400.53 286.987 400.403 276.646 400.25 269.352C398.472 269.275 396.555 269.284 394.695 269.294L394.641 269.294C393.994 269.296 393.354 269.299 392.729 269.299C392.648 267.659 392.672 265.837 392.695 264.097L392.695 264.092L392.695 264.088C392.702 263.545 392.709 263.008 392.714 262.489L385.202 262.482C385.077 260.549 385.099 258.431 385.12 256.408L385.12 256.401L385.12 256.345C385.126 255.82 385.13 255.302 385.134 254.795L378.239 254.738C378.208 251.44 378.207 248.141 378.235 244.842C380.42 244.722 382.399 244.762 384.557 244.806L384.564 244.806L384.571 244.806L384.929 244.813L385.297 252.216C387.973 252.13 390.176 252.124 392.851 252.216C392.867 253.825 392.857 255.46 392.846 257.087C392.84 257.851 392.836 258.613 392.833 259.37C395.694 259.331 398.325 259.308 401.191 259.406L401.18 265.201C402.657 265.023 404.729 265.024 406.27 264.981L406.227 257.453C407.904 257.372 409.6 257.406 411.286 257.439C411.598 257.446 411.911 257.452 412.222 257.458C412.452 250.61 412.445 243.391 412.438 236.326C412.435 233.689 412.432 231.071 412.443 228.504L406.424 228.546C406.328 225.578 406.267 222.607 406.24 219.637C408.697 219.576 411.385 219.622 413.982 219.667L414.037 219.669C415.023 219.686 415.997 219.703 416.94 219.715L416.964 211.256L423.08 211.133C423.305 209.223 423.304 206.493 423.303 204.182C423.303 203.554 423.303 202.957 423.306 202.417C425.473 202.266 427.494 202.316 429.627 202.368L429.64 202.368L429.653 202.368C429.911 202.374 430.171 202.381 430.435 202.387C430.386 205.308 430.405 208.23 430.489 211.15C433.06 211.276 436.078 211.249 438.699 211.305C438.689 214.193 438.704 217.082 438.746 219.971L439.199 219.964C444.418 219.887 451.04 219.788 456.08 220.076C456.056 222.361 456.11 224.792 456.163 227.174C456.186 228.231 456.21 229.28 456.226 230.302C456.594 230.3 456.959 230.296 457.325 230.294C460.923 230.267 464.423 230.243 468.04 230.436L467.964 238.569C474.251 238.506 480.539 238.497 486.826 238.541C487.032 235.029 486.97 230.342 486.914 226.118C486.892 224.499 486.873 222.947 486.868 221.556L481.345 221.569C481.148 219.597 481.134 217.179 481.073 215.16C479.25 214.915 477.018 214.936 475.153 214.905L475.103 209.049C472.958 209.046 470.813 208.994 468.668 208.894L468.606 202.566C465.884 202.497 463.161 202.559 460.389 202.482C460.044 198.05 460.108 191.946 460.161 186.847L460.161 186.81C460.173 185.752 460.183 184.737 460.189 183.79C458.34 183.652 456.316 183.672 454.238 183.691L454.217 183.691L454.166 183.691C452.139 183.71 450.066 183.729 448.057 183.606C448.031 180.937 448.039 178.706 448.19 176.023C449.516 176.112 450.986 176.119 452.389 176.124C452.792 176.126 453.188 176.127 453.574 176.131C453.721 173.811 453.717 170.94 453.714 168.293L453.714 168.278L453.714 168.263C453.713 167.297 453.712 166.36 453.717 165.491L458.92 165.535C458.985 163.959 458.977 162.215 458.969 160.533L458.969 160.491L458.968 160.437C458.965 159.781 458.962 159.138 458.963 158.518C456.775 158.508 454.585 158.544 452.397 158.625C452.39 159.025 452.36 160.419 452.23 160.676C450.72 163.652 444.386 168.937 441.586 170.194C441.455 168.688 441.459 167.083 441.464 165.531C441.465 165.206 441.466 164.884 441.466 164.565C440.827 164.559 439.901 164.597 438.866 164.641L438.85 164.643L438.826 164.643C436.123 164.756 432.694 164.898 431.707 164.341C430.623 163.164 430.731 160.722 430.818 158.766C430.836 158.355 430.852 157.966 430.858 157.615ZM428.349 170.672L428.458 170.671L428.789 170.669C432.835 170.641 436.797 170.613 440.445 170.647C440.45 170.805 440.458 171.005 440.469 171.237C440.539 172.919 440.678 176.244 440.14 177.04C438.185 177.167 435.28 177.142 432.702 177.119L432.331 177.115L432.208 177.114C431.263 177.106 430.375 177.099 429.611 177.104C422.11 177.17 414.608 177.141 407.107 177.014C407.139 174.842 407.139 172.67 407.107 170.498C413.476 170.779 420.983 170.725 428.262 170.673L428.307 170.672L428.349 170.672ZM389.52 186.833L389.954 186.842L390.05 179.248C391.998 179.238 393.947 179.252 395.895 179.287C397.055 179.272 400.42 179.248 401.454 179.462C401.104 178.242 401.462 178.335 402.134 178.51L402.135 178.51C402.624 178.637 403.279 178.808 403.95 178.55C405.667 177.89 405.14 180.235 404.85 181.07C404.773 181.251 403.614 181.265 402.746 181.277C402.437 181.28 402.163 181.284 401.989 181.294C401.998 181.819 402.018 182.376 402.038 182.948L402.039 182.973C402.097 184.657 402.158 186.47 401.968 187.975C401.948 188.126 400.788 188.126 400.706 188.131C400.772 186.763 400.837 181.45 401.184 180.478C400.294 180.621 399.85 180.605 399.055 180.575L399.044 180.575C398.947 180.572 398.845 180.567 398.737 180.563L398.318 180.637C398.231 180.648 397.733 180.72 397.721 180.806C397.446 182.853 397.491 186.093 397.69 188.132C397.113 189.25 392.554 189.137 390.041 189.074L390.014 189.074L389.996 189.073C389.476 189.06 389.048 189.048 388.764 189.052C388.738 191.64 388.756 193.78 388.405 196.358L381.625 196.367L381.534 205.207L375.479 205.257L375.468 216.387C373.85 216.463 371.876 216.408 370.059 216.359L370.045 216.358L370.031 216.358C369.411 216.341 368.809 216.325 368.246 216.314C368.2 211.861 368.2 207.407 368.25 202.954C369.731 202.819 371.706 202.863 373.428 202.901L373.465 202.902L373.492 202.903C373.915 202.912 374.323 202.921 374.703 202.927C374.845 201.082 374.817 198.75 374.791 196.651C374.783 196.016 374.776 195.401 374.774 194.828C376.491 194.779 378.283 194.794 380.042 194.81C380.643 194.816 381.239 194.821 381.828 194.823C381.806 192.164 381.836 189.503 381.92 186.845C384.504 186.738 386.935 186.785 389.498 186.833L389.508 186.833L389.52 186.833ZM363.869 187.579C363.836 185.506 363.849 183.433 363.907 181.359C364.488 180.475 367.018 180.533 368.637 180.57L368.643 180.57C368.994 180.579 369.301 180.585 369.538 180.582C369.378 181.912 369.396 183.598 369.414 185.212L369.414 185.223L369.414 185.264C369.424 186.114 369.433 186.944 369.416 187.687C369.09 187.689 368.728 187.693 368.345 187.698C366.874 187.718 365.099 187.74 363.869 187.579ZM402.905 256.651C401.874 256.651 400.84 256.651 399.816 256.639C399.844 254.148 399.823 251.462 399.801 248.712L399.799 248.449L399.798 248.363C399.752 242.832 399.704 237.068 400.025 232.148C402.413 232.055 403.903 232.03 406.317 232.156C406.073 237.025 406.174 242.181 406.275 247.286C406.337 250.46 406.399 253.616 406.378 256.671C405.233 256.653 404.07 256.653 402.905 256.651ZM378.058 267.991L370.938 267.994C370.809 264.864 370.78 261.73 370.851 258.597C373.58 258.625 375.209 258.647 377.931 258.862C377.953 259.961 377.951 261.091 377.948 262.226L377.948 262.288C377.946 264.224 377.944 266.169 378.058 267.991ZM378.356 273.936L378.352 273.854L378.351 273.836C378.249 271.53 378.097 268.096 378.218 266.765C378.82 266.753 379.363 266.738 379.87 266.725C381.752 266.675 383.159 266.638 385.438 266.746C385.467 269.563 385.462 272.379 385.425 275.196C388.393 274.841 389.804 274.871 392.802 274.938C392.747 276.159 392.763 277.38 392.779 278.602L392.779 278.647C392.797 280.077 392.816 281.509 392.718 282.937C390.256 283.056 387.831 283.046 385.365 283.061L385.433 275.308C383.096 275.399 380.757 275.434 378.419 275.41C378.406 275.034 378.382 274.525 378.356 273.936Z"/><path fill="#FFFEFB" transform="matrix(0.481023 0 0 0.481023 31.2172 346.885)" d="M363.907 181.359L363.647 181.319C363.315 182.216 360.47 182.247 358.475 182.269C357.875 182.275 357.352 182.281 356.997 182.308C357.009 182.646 357.022 182.99 357.035 183.339C357.084 184.63 357.134 185.981 357.13 187.222C358.828 187.083 362.232 187.096 363.869 187.579C363.836 185.506 363.849 183.433 363.907 181.359Z"/><path fill="#FFFEFB" transform="matrix(0.481023 0 0 0.481023 31.2172 346.885)" d="M400.706 188.131C400.772 186.763 400.837 181.45 401.184 180.478C400.294 180.621 399.85 180.605 399.055 180.575L399.044 180.575C398.947 180.572 398.845 180.567 398.737 180.563L398.318 180.637C398.231 180.648 397.733 180.72 397.721 180.806C397.446 182.853 397.491 186.093 397.69 188.132C398.821 187.978 399.433 188.027 400.531 188.116L400.534 188.117L400.549 188.118L400.706 188.131Z"/><path fill="#FFFEFB" transform="matrix(0.481023 0 0 0.481023 31.2172 346.885)" d="M222.979 254.128C214.418 253.755 200.376 253.796 191.779 254.09C191.799 256.438 191.788 258.786 191.743 261.135C189.843 261.237 188.532 261.263 186.634 261.195C186.795 263.18 186.829 264.614 186.819 266.61C186.045 266.67 185.072 266.652 184.083 266.633L184.071 266.633L184.049 266.633L184.037 266.633C182.583 266.605 181.106 266.577 180.187 266.798L179.811 267.433C179.89 268.296 179.926 268.8 179.93 269.673L179.943 269.866C180.105 272.342 180.175 273.423 179.946 275.922L173.912 276.023C173.923 276.469 173.941 276.945 173.958 277.441L173.959 277.484C174.018 279.145 174.083 280.995 174.004 282.44L166.412 282.401C166.368 280.372 166.358 278.34 166.384 276.31C164.301 276.343 162.062 276.321 160.015 276.619C160.013 276.99 160.013 277.374 160.012 277.765C160.009 279.258 160.007 280.858 159.89 282.248L159.792 282.247C157.332 282.211 155.024 282.177 152.554 282.274L152.518 286.849C152.264 286.847 151.946 286.842 151.581 286.837L151.58 286.837C149.544 286.806 146.098 286.755 144.776 286.966C144.77 288.008 144.747 289.194 144.645 290.229C144.584 290.868 144.558 291.375 144.547 292.017C144.385 293.812 144.191 295.69 144.077 297.482C143.757 297.482 143.288 297.475 142.745 297.467L142.704 297.467L142.694 297.467C140.961 297.442 138.507 297.408 137.65 297.512L137.66 299.788C137.781 301.662 137.783 303.637 137.785 305.558C137.785 306.026 137.786 306.489 137.788 306.947C146.31 306.911 154.832 306.933 163.354 307.014L163.438 300.356C163.88 300.351 164.464 300.341 165.142 300.328C168.651 300.265 174.675 300.159 176.441 300.512L176.658 301.308C177.565 301.593 179.909 301.573 181.429 301.56L181.43 301.56C181.734 301.557 182.005 301.554 182.225 301.555C182.231 301.439 182.237 301.303 182.246 301.146C182.329 299.545 182.511 296.037 182.055 295.147L181.817 294.602C181.618 293.858 181.628 292.9 181.638 292.047C181.639 291.866 181.641 291.69 181.641 291.52C184.165 291.451 186.819 291.459 189.426 291.467L189.429 291.467L189.443 291.467C190.504 291.471 191.556 291.474 192.587 291.472C192.67 289.825 192.673 287.961 192.675 286.175C192.676 285.438 192.677 284.714 192.683 284.025C194.301 283.883 196.286 283.889 198.089 283.896L198.106 283.896L198.119 283.897C198.618 283.899 199.102 283.901 199.56 283.899L199.605 276.285L206.251 276.143C206.437 274.255 206.439 271.897 206.44 269.775C206.441 269.191 206.441 268.626 206.446 268.093C211.326 267.848 218.05 267.964 222.92 268.083C223.164 263.807 223.108 258.428 222.979 254.128Z"/><path fill="#FFFEFB" transform="matrix(0.481023 0 0 0.481023 31.2172 346.885)" d="M181.675 295.154C181.849 295.15 181.983 295.146 182.055 295.147L181.817 294.602C181.725 294.599 181.62 294.595 181.509 294.59L181.491 294.589C180.798 294.563 179.808 294.526 179.248 294.621L179.039 294.833L179.019 294.691C178.981 294.723 178.942 294.754 178.903 294.784C178.818 295.237 180.774 295.181 181.675 295.154Z"/><path fill="#FFFEFB" transform="matrix(0.481023 0 0 0.481023 31.2172 346.885)" d="M406.691 268.531L406.686 268.531C406.68 269.833 406.662 271.389 406.643 273.099C406.565 279.825 406.462 288.944 406.942 294.378C406.94 294.351 407.123 294.632 407.273 294.863C407.371 295.014 407.455 295.143 407.463 295.149C407.851 295.433 407.839 296.2 407.827 296.917L407.827 296.919L407.827 296.921C407.824 297.109 407.821 297.294 407.826 297.466C408.019 297.835 408.171 298.159 408.346 298.535C409.221 298.653 411.724 298.658 412.72 298.683C412.545 288.634 412.483 278.584 412.533 268.532C410.545 268.462 408.685 268.495 406.696 268.531L406.694 268.531L406.691 268.531Z"/><path fill="#FFFEFB" transform="matrix(0.481023 0 0 0.481023 31.2172 346.885)" d="M156.066 357.358L156.046 357.358L156.025 357.357C154.045 357.338 152.013 357.318 150.059 357.486C149.995 359.414 150.022 361.378 150.048 363.319L150.05 363.443L150.051 363.494C150.053 363.707 150.057 363.919 150.06 364.131L156.728 364.19C156.818 361.803 156.833 359.758 156.743 357.365L156.066 357.358Z"/><path fill="#FFFEFB" transform="matrix(0.481023 0 0 0.481023 31.2172 346.885)" d="M120.899 396.588C118.482 396.472 116.515 396.407 114.087 396.554C114.117 398.762 114.128 400.971 114.123 403.181C114.288 403.18 114.514 403.183 114.783 403.187L114.924 403.189L115.124 403.191C117.029 403.219 120.393 403.268 120.865 402.887C120.935 400.826 120.953 398.652 120.899 396.588Z"/><path fill="#FFFEFB" transform="matrix(0.481023 0 0 0.481023 31.2172 346.885)" d="M140.734 355.699C138.255 355.606 136.723 355.587 134.262 355.694C134.193 358.128 134.247 359.784 134.347 362.183C135.946 362.272 139.139 362.409 140.72 362.253C140.726 361.688 140.735 361.125 140.746 360.563L140.746 360.555L140.746 360.548C140.774 358.932 140.801 357.324 140.734 355.699Z"/><path fill="#FFFEFB" transform="matrix(0.481023 0 0 0.481023 31.2172 346.885)" d="M336.707 193.038C335.257 193.045 333.796 193.051 332.389 193.034L332.471 199.5C334.964 199.465 336.714 199.496 339.178 199.593L339.201 193.032C338.382 193.032 337.546 193.035 336.707 193.038Z"/><path fill="#FFFEFB" transform="matrix(0.481023 0 0 0.481023 31.2172 346.885)" d="M159.762 262.519C158.063 262.505 156.553 262.493 154.786 262.598C153.879 262.925 154.094 266.354 154.211 268.228L154.212 268.233L154.212 268.235C154.235 268.606 154.253 268.913 154.26 269.124C156.237 269.222 158.242 269.225 160.231 269.282C160.582 268.481 160.571 265.422 160.564 263.556L160.564 263.554L160.564 263.534C160.564 263.453 160.564 263.373 160.563 263.297C160.562 262.992 160.562 262.729 160.564 262.525C160.291 262.523 160.025 262.521 159.762 262.519Z"/><path fill="#FFFEFB" transform="matrix(0.481023 0 0 0.481023 31.2172 346.885)" d="M331.497 201.933C329.31 201.953 327.292 201.94 325.093 202.003C325.016 204.151 325.063 206.324 325.014 208.502C326.762 208.464 328.453 208.464 330.179 208.464L331.37 208.464C331.499 206.464 331.498 204.538 331.497 202.547L331.497 201.933Z"/><path fill="#FFFEFB" transform="matrix(0.481023 0 0 0.481023 31.2172 346.885)" d="M128.655 406.569L128.613 406.567C126.568 406.495 125.067 406.443 122.864 406.521C122.789 408.686 122.826 410.74 122.865 412.904L122.865 412.922C125.008 412.884 127.152 412.901 129.295 412.974C129.39 411.007 129.343 408.571 129.288 406.591C129.07 406.582 128.86 406.576 128.655 406.569Z"/><path fill="#FFFEFB" transform="matrix(0.481023 0 0 0.481023 31.2172 346.885)" d="M163.423 368.74C161.752 368.758 160.096 368.751 158.427 368.793C158.357 368.802 157.091 368.921 157.075 369.052C156.913 370.43 156.937 372.156 156.959 373.711C156.967 374.26 156.974 374.788 156.973 375.272L162.313 375.313C163.788 375.351 163.579 371.695 163.466 369.706C163.443 369.299 163.423 368.961 163.423 368.74Z"/><path fill="#FFFEFB" transform="matrix(0.481023 0 0 0.481023 31.2172 346.885)" d="M137.038 293.719L130.547 293.746C130.501 295.863 130.517 297.981 130.597 300.097C131.283 300.092 131.986 300.091 132.694 300.091C134.137 300.089 135.602 300.088 136.99 300.054L137.156 298.62L137.152 298.591C137.108 298.157 137.09 297.974 137.106 297.526C137.062 296.257 137.04 294.987 137.038 293.719Z"/><path fill="#FFFEFB" transform="matrix(0.481023 0 0 0.481023 31.2172 346.885)" d="M368.456 156.872C366.319 156.8 364.179 156.806 362.04 156.892C362.051 159.027 362.041 161.163 362.011 163.298C364.172 163.233 366.167 163.243 368.315 163.228C368.509 160.92 368.517 159.19 368.456 156.872Z"/><path fill="#FFFEFB" transform="matrix(0.481023 0 0 0.481023 31.2172 346.885)" d="M309.298 215.526C307.071 215.452 304.842 215.439 302.616 215.489C302.67 217.616 302.723 219.522 302.733 221.668L309.296 221.726C309.344 219.659 309.344 217.593 309.298 215.526Z"/><path fill="#FFFEFB" transform="matrix(0.481023 0 0 0.481023 31.2172 346.885)" d="M349.717 200.539C347.527 200.526 345.336 200.527 343.146 200.542C343.276 202.72 343.32 204.728 343.36 206.903C344.211 206.907 345.061 206.898 345.912 206.888L345.915 206.888L345.922 206.888L345.927 206.888C347.182 206.874 348.435 206.861 349.687 206.887C349.736 204.772 349.746 202.656 349.717 200.539Z"/><path fill="#FFFEFB" transform="matrix(0.481023 0 0 0.481023 31.2172 346.885)" d="M360.697 165.467C358.701 165.512 356.701 165.51 354.702 165.539C354.19 166.159 354.274 169.035 354.326 170.831L354.328 170.933L354.331 171.025C354.341 171.396 354.35 171.709 354.349 171.934C356.436 171.902 358.525 171.903 360.612 171.937C360.734 169.861 360.719 167.555 360.697 165.467Z"/><path fill="#FFFEFB" transform="matrix(0.481023 0 0 0.481023 31.2172 346.885)" d="M351.726 156.049C349.591 155.978 347.579 155.992 345.444 156.014C345.495 157.141 345.483 158.386 345.471 159.631C345.46 160.599 345.451 161.567 345.471 162.482C347.736 162.407 349.339 162.374 351.606 162.493C351.854 161.66 351.766 157.785 351.733 156.34C351.73 156.227 351.728 156.13 351.726 156.049Z"/><path fill="#FFFEFB" transform="matrix(0.481023 0 0 0.481023 31.2172 346.885)" d="M199.725 301.068C197.318 300.915 195.751 300.916 193.312 300.987C193.312 302.515 193.333 304.048 193.355 305.578C193.363 306.134 193.37 306.691 193.377 307.245C195.492 307.206 197.607 307.216 199.721 307.279C199.832 305.21 199.833 303.137 199.725 301.068Z"/><path fill="#FFFEFB" transform="matrix(0.481023 0 0 0.481023 31.2172 346.885)" d="M269.833 217.794C269.546 217.801 269.242 217.807 268.915 217.816C268.712 219.327 268.777 222.609 268.819 224.175C269.115 224.183 269.43 224.191 269.757 224.2C271.435 224.247 273.431 224.301 274.918 224.227C275.054 222.002 275.068 220.033 275.04 217.806C272.845 217.723 271.696 217.749 269.833 217.794Z"/><path fill="#FFFEFB" transform="matrix(0.481023 0 0 0.481023 31.2172 346.885)" d="M384.582 156.617C382.494 156.55 380.407 156.542 378.32 156.59C378.324 157.053 378.326 157.503 378.328 157.947C378.335 159.62 378.341 161.191 378.458 162.958L384.558 163.025C384.622 160.889 384.63 158.753 384.582 156.617Z"/><path fill="#FFFEFB" transform="matrix(0.481023 0 0 0.481023 31.2172 346.885)" d="M139.052 396.308C137.005 396.289 134.958 396.303 132.913 396.353L132.923 402.918C134.931 402.885 137.02 402.886 139.005 402.837L139.052 396.308Z"/><path fill="#FFFEFB" transform="matrix(0.481023 0 0 0.481023 31.2172 346.885)" d="M391.512 344.705C389.369 344.643 387.563 344.632 385.432 344.66C385.404 346.832 385.417 349.004 385.468 351.176L391.501 351.163C391.545 348.955 391.565 346.913 391.512 344.705Z"/><path fill="#FFFEFB" transform="matrix(0.481023 0 0 0.481023 31.2172 346.885)" d="M302.915 224.603L296.659 224.634L296.69 230.957C298.853 230.899 300.796 230.9 302.959 230.922C302.996 228.815 302.981 226.709 302.915 224.603Z"/><path fill="#FFFEFB" transform="matrix(0.481023 0 0 0.481023 31.2172 346.885)" d="M346.123 184.106L342.557 184.043C341.635 184.076 340.715 184.1 339.792 184.108L339.815 190.354C340.897 190.337 341.98 190.329 343.062 190.329C343.537 190.333 343.953 190.37 344.313 190.402C345.482 190.509 346.043 190.56 346.051 189.182L346.123 184.106Z"/><path fill="#FFFEFB" transform="matrix(0.481023 0 0 0.481023 31.2172 346.885)" d="M333.908 219.038C331.79 219.037 329.673 219.05 327.555 219.078L327.554 219.197C327.538 220.304 327.474 224.81 327.664 225.545C327.634 225.568 327.641 225.594 327.692 225.621C327.682 225.604 327.674 225.579 327.664 225.545C328.025 225.27 333.528 225.219 333.723 225.219C333.752 223.121 333.857 221.125 333.908 219.038Z"/><path fill="#FFFEFB" transform="matrix(0.481023 0 0 0.481023 31.2172 346.885)" d="M311.629 230.937L305.27 230.955C305.227 233.01 305.248 235.065 305.332 237.118C307.316 237.152 309.436 237.147 311.434 237.155C311.651 235.984 311.638 233.123 311.63 231.481C311.63 231.279 311.629 231.096 311.629 230.937Z"/><path fill="#FFFEFB" transform="matrix(0.481023 0 0 0.481023 31.2172 346.885)" d="M170.555 360.48C169.387 360.509 168.218 360.512 167.05 360.488C166.131 360.541 165.212 360.586 164.293 360.62C164.284 362.727 164.294 364.836 164.322 366.943C165.283 366.706 165.859 366.708 166.745 366.712C166.898 366.713 167.059 366.714 167.234 366.713C168.339 366.723 169.443 366.726 170.548 366.716C170.54 364.637 170.542 362.559 170.555 360.48Z"/><path fill="#FFFEFB" transform="matrix(0.481023 0 0 0.481023 31.2172 346.885)" d="M179.382 265.766C179.375 265.102 179.369 264.437 179.375 263.779C177.162 263.772 175.22 263.816 173.022 263.866L173.015 263.866L173.007 263.866C173 264.338 172.996 264.829 172.993 265.328C172.983 266.867 172.973 268.493 172.838 269.91C173.315 269.892 173.789 269.87 174.261 269.848C175.993 269.766 177.702 269.686 179.444 269.873C179.377 268.807 179.377 267.969 179.391 266.913C179.39 266.532 179.387 266.149 179.382 265.766Z"/><path fill="#FFFEFB" transform="matrix(0.481023 0 0 0.481023 31.2172 346.885)" d="M266.227 226.314C264.683 226.314 263.273 226.314 261.637 226.381C260.927 226.653 261.136 230.193 261.235 231.873C261.253 232.174 261.268 232.414 261.273 232.566C263.182 232.602 265.1 232.586 267.015 232.609C267.533 232.137 267.423 228.619 267.371 226.969C267.363 226.688 267.355 226.462 267.353 226.313C266.967 226.314 266.592 226.314 266.227 226.314Z"/><path fill="#FFFEFB" transform="matrix(0.481023 0 0 0.481023 31.2172 346.885)" d="M376.814 164.781L370.517 164.841L370.512 170.903L376.793 170.902C376.787 169.94 376.795 168.988 376.804 168.034C376.815 166.954 376.824 165.874 376.814 164.781Z"/><path fill="#FFFEFB" transform="matrix(0.481023 0 0 0.481023 31.2172 346.885)" d="M104.552 285.177C102.49 285.123 100.428 285.126 98.3664 285.187C98.3514 286.392 98.3561 287.592 98.3607 288.793L98.3608 288.839C98.364 289.661 98.367 290.481 98.3637 291.303C99.9553 291.312 101.517 291.284 103.092 291.254L103.257 291.251L103.295 291.25C103.733 291.242 104.171 291.234 104.612 291.227C104.614 291.024 104.616 290.824 104.617 290.629L104.617 290.628L104.617 290.628C104.635 288.736 104.649 287.138 104.552 285.177Z"/><path fill="#FFFEFB" transform="matrix(0.481023 0 0 0.481023 31.2172 346.885)" d="M316.111 180.456C313.852 180.371 312.114 180.35 309.835 180.434C309.843 182.448 309.904 184.478 309.933 186.497C312.118 186.475 313.857 186.487 316.051 186.594C316.183 184.388 316.192 182.658 316.111 180.456Z"/><path fill="#FFFEFB" transform="matrix(0.481023 0 0 0.481023 31.2172 346.885)" d="M123.553 303.046C123.192 303.05 122.826 303.052 122.452 303.056C122.47 305.104 122.531 307.149 122.58 309.198C123.101 309.195 123.674 309.199 124.262 309.204L124.291 309.204L124.333 309.204L124.344 309.204C125.815 309.216 127.395 309.228 128.632 309.13C128.784 306.868 128.742 305.298 128.658 303.057C126.867 303.02 125.266 303.032 123.553 303.046Z"/><path fill="#FFFEFB" transform="matrix(0.481023 0 0 0.481023 31.2172 346.885)" d="M324.225 210.801L317.88 210.81C317.871 211.794 317.885 212.767 317.898 213.747L317.899 213.757L317.899 213.765C317.912 214.79 317.926 215.818 317.915 216.864C318.042 216.867 318.181 216.87 318.327 216.873L318.349 216.873L318.353 216.874C320.02 216.912 322.784 216.975 324.128 216.821L324.133 216.67L324.134 216.637C324.194 214.676 324.252 212.767 324.225 210.801Z"/><path fill="#FFFEFB" transform="matrix(0.481023 0 0 0.481023 31.2172 346.885)" d="M120.538 294.478C118.446 294.467 116.353 294.499 114.262 294.572C114.197 295.639 114.192 296.838 114.186 298.033C114.183 298.879 114.179 299.723 114.154 300.521C116.299 300.492 118.247 300.486 120.393 300.532C120.629 299.491 120.56 295.649 120.538 294.478Z"/><path fill="#FFFEFB" transform="matrix(0.481023 0 0 0.481023 31.2172 346.885)" d="M85.8812 283.09C83.5427 282.969 82.1471 282.946 79.8019 283.039C79.7997 285.098 79.8163 287.158 79.8512 289.216C81.8445 289.264 83.838 289.286 85.832 289.284C85.9083 287.219 85.9248 285.155 85.8812 283.09Z"/><path fill="#FFFEFB" transform="matrix(0.481023 0 0 0.481023 31.2172 346.885)" d="M102.249 269.193L102.243 269.193L102.24 269.193C100.615 269.181 99.1668 269.171 97.4411 269.234C96.7539 269.607 96.9294 272.788 97.0228 274.48C97.0428 274.841 97.059 275.134 97.0621 275.318C97.5368 275.319 98.0018 275.319 98.4621 275.318C99.8867 275.315 101.266 275.314 102.745 275.356C103.421 275.032 103.313 271.913 103.253 270.153C103.239 269.745 103.227 269.41 103.229 269.2C102.893 269.197 102.568 269.195 102.249 269.193Z"/><path fill="#FFFEFB" transform="matrix(0.481023 0 0 0.481023 31.2172 346.885)" d="M308.796 188.346C306.635 188.341 304.843 188.338 302.698 188.527C302.648 189.618 302.654 190.839 302.661 192.053L302.662 192.2L302.663 192.356C302.665 193.104 302.667 193.845 302.654 194.547C302.78 194.55 302.924 194.554 303.082 194.557L303.097 194.557L303.139 194.558C304.722 194.598 307.647 194.671 308.76 194.586L308.796 188.346Z"/><path fill="#FFFEFB" transform="matrix(0.481023 0 0 0.481023 31.2172 346.885)" d="M288.065 225.715C286.007 225.693 283.95 225.697 281.891 225.73C281.859 226.926 281.862 228.089 281.866 229.256L281.866 229.364C281.869 230.186 281.873 231.011 281.863 231.851C283.922 231.819 285.878 231.841 287.928 231.864C288.042 231.219 288.05 228.879 288.055 227.197C288.057 226.571 288.058 226.037 288.065 225.715Z"/><path fill="#FFFEFB" transform="matrix(0.481023 0 0 0.481023 31.2172 346.885)" d="M178.028 332.641C175.937 332.644 174.061 332.673 171.977 332.717C171.937 334.744 171.926 336.77 171.947 338.797C174.031 338.868 175.993 338.846 178.075 338.805C178.087 336.751 178.071 334.696 178.028 332.641Z"/><path fill="#FFFEFB" transform="matrix(0.481023 0 0 0.481023 31.2172 346.885)" d="M138.098 383.456C136.351 383.461 134.735 383.466 132.932 383.579C132.911 385.626 132.911 387.673 132.934 389.718L138.993 389.733C139.022 387.64 139.025 385.547 139.001 383.453L138.098 383.456Z"/><path fill="#FFFEFB" transform="matrix(0.481023 0 0 0.481023 31.2172 346.885)" d="M322.591 158.385C321.042 158.326 319.492 158.309 317.941 158.332C317.885 158.335 317.813 158.337 317.733 158.338C317.374 158.344 316.839 158.353 316.629 158.531C316.482 158.932 316.576 163.646 316.596 164.598L316.596 164.608L316.597 164.665C318.287 164.636 319.912 164.594 321.607 164.588C321.626 164.588 321.653 164.59 321.684 164.591C321.884 164.602 322.284 164.623 322.342 164.487C322.688 163.675 322.625 160.341 322.599 158.913L322.599 158.911L322.599 158.9C322.595 158.673 322.592 158.495 322.591 158.385Z"/><path fill="#FFFEFB" transform="matrix(0.481023 0 0 0.481023 31.2172 346.885)" d="M177.558 352.124C175.586 352.037 173.61 352.034 171.637 352.118C171.586 354.216 171.592 356.26 171.534 358.381C173.38 358.311 174.774 358.314 176.44 358.317L176.48 358.317L176.521 358.317C176.853 358.317 177.196 358.318 177.556 358.318C177.694 356.255 177.695 354.187 177.558 352.124Z"/><path fill="#FFFEFB" transform="matrix(0.481023 0 0 0.481023 31.2172 346.885)" d="M343.911 164.509L337.801 164.58L337.745 170.718C339.767 170.694 341.822 170.714 343.83 170.68C343.902 168.623 343.929 166.566 343.911 164.509Z"/><path fill="#FFFEFB" transform="matrix(0.481023 0 0 0.481023 31.2172 346.885)" d="M142.902 314.747C140.75 314.691 139.004 314.708 136.866 314.732C136.85 316.771 136.862 318.808 136.905 320.846L137.12 320.848C139.066 320.866 140.945 320.882 142.897 320.827C142.996 318.801 142.998 316.773 142.902 314.747Z"/><path fill="#FFFEFB" transform="matrix(0.481023 0 0 0.481023 31.2172 346.885)" d="M112.483 308.46C112.54 306.813 112.663 303.268 112.169 302.971C110.252 303.005 108.286 302.974 106.388 303.09C106.385 303.284 106.372 303.57 106.357 303.913C106.284 305.591 106.151 308.656 106.744 309.13C108.248 309.098 109.57 309.121 110.974 309.145L110.993 309.146L111.108 309.148C111.548 309.156 111.997 309.164 112.462 309.171C112.463 309.033 112.472 308.783 112.483 308.46Z"/><path fill="#FFFEFB" transform="matrix(0.481023 0 0 0.481023 31.2172 346.885)" d="M353.033 174.426C350.929 174.43 349.081 174.459 346.977 174.52C346.913 176.61 346.933 178.614 346.954 180.702C348.682 180.619 351.374 180.686 352.901 180.53C352.978 178.496 353.022 176.462 353.033 174.426Z"/><path fill="#FFFEFB" transform="matrix(0.481023 0 0 0.481023 31.2172 346.885)" d="M188.779 340.895C186.758 340.911 184.738 340.955 182.719 341.025C182.705 343.045 182.703 345.065 182.711 347.086L188.809 347.077L188.779 340.895Z"/><path fill="#FFFEFB" transform="matrix(0.481023 0 0 0.481023 31.2172 346.885)" d="M284.682 208.729L280.962 208.651C280.568 208.672 278.799 208.691 278.764 208.915C278.614 209.878 278.681 213.103 278.71 214.489C278.713 214.661 278.717 214.804 278.719 214.91L283.165 214.957L283.317 214.96C284.105 214.98 284.475 214.988 284.642 214.808C284.79 214.649 284.78 214.346 284.763 213.772L284.763 213.771C284.756 213.551 284.748 213.292 284.747 212.987C284.754 211.568 284.732 210.148 284.682 208.729Z"/><path fill="#FFFEFB" transform="matrix(0.481023 0 0 0.481023 31.2172 346.885)" d="M175.78 303.497C173.829 303.444 172.306 303.432 170.359 303.514C169.35 303.616 169.535 306.773 169.642 308.591L169.642 308.592L169.642 308.594C169.666 309.009 169.686 309.355 169.687 309.577L175.242 309.646C176.028 309.596 175.883 306.154 175.807 304.37C175.791 303.984 175.778 303.675 175.78 303.497Z"/><path fill="#FFFEFB" transform="matrix(0.481023 0 0 0.481023 31.2172 346.885)" d="M294.883 217.401C292.896 217.372 290.91 217.382 288.924 217.433L288.919 223.619C291.041 223.559 292.687 223.539 294.806 223.656C294.888 221.509 294.93 219.551 294.883 217.401Z"/><path fill="#FFFEFB" transform="matrix(0.481023 0 0 0.481023 31.2172 346.885)" d="M111.792 405.445C109.841 405.442 108.114 405.44 106.136 405.557L106.099 411.626C107.401 411.685 108.733 411.691 110.061 411.698C110.758 411.702 111.454 411.705 112.144 411.715C112.207 409.626 112.223 407.536 112.193 405.445L111.792 405.445Z"/><path fill="#FFFEFB" transform="matrix(0.481023 0 0 0.481023 31.2172 346.885)" d="M148.997 372.197C149.068 370.663 149.255 366.603 148.691 366.326C147.512 366.389 146.293 366.394 145.079 366.398C144.432 366.402 143.787 366.404 143.15 366.416C143.145 366.616 143.131 366.9 143.116 367.236C143.035 368.946 142.891 372.022 143.447 372.616C145.367 372.609 147.055 372.606 148.979 372.642C148.982 372.541 148.989 372.389 148.997 372.197Z"/><path fill="#FFFEFB" transform="matrix(0.481023 0 0 0.481023 31.2172 346.885)" d="M329.819 187.627C328.513 187.603 327.205 187.607 325.898 187.641C325.55 187.665 323.899 187.712 323.826 187.894C323.496 188.707 323.596 191.942 323.637 193.269L323.637 193.28L323.638 193.304C323.643 193.427 323.646 193.532 323.649 193.615C325.084 193.602 326.52 193.604 327.956 193.617C327.996 193.619 328.06 193.621 328.139 193.624C328.631 193.648 329.731 193.697 329.752 193.507C329.854 192.521 329.835 189.99 329.824 188.486C329.821 188.132 329.819 187.834 329.819 187.627Z"/><path fill="#FFFEFB" transform="matrix(0.481023 0 0 0.481023 31.2172 346.885)" d="M135.954 262.763C133.63 262.662 132.212 262.693 129.907 262.773C129.882 264.766 129.877 266.761 129.893 268.755C131.914 268.751 133.936 268.76 135.959 268.781C135.976 266.775 135.974 264.769 135.954 262.763Z"/><path fill="#FFFEFB" transform="matrix(0.481023 0 0 0.481023 31.2172 346.885)" d="M186.018 255.59C183.907 255.532 182.143 255.513 180.032 255.594C180.002 257.62 179.994 259.645 180.006 261.67C180.234 261.666 180.46 261.664 180.686 261.661C182.528 261.638 184.336 261.616 186.186 261.68C185.99 260.437 186.002 258.608 186.014 257.029L186.014 256.987L186.014 256.949C186.018 256.463 186.021 256 186.018 255.59Z"/><path fill="#FFFEFB" transform="matrix(0.481023 0 0 0.481023 31.2172 346.885)" d="M111.994 383.743C110.168 383.677 108.341 383.666 106.514 383.713C105.891 384.055 106.023 387.305 106.094 389.033C106.108 389.392 106.12 389.686 106.122 389.874C107.982 389.936 109.8 389.924 111.656 389.911L111.678 389.911L111.7 389.911L111.842 389.91C112.187 388.495 112.071 385.64 112.004 383.982L112.004 383.98L111.994 383.743Z"/><path fill="#FFFEFB" transform="matrix(0.481023 0 0 0.481023 31.2172 346.885)" d="M336.806 179.436C334.694 179.411 332.944 179.412 330.825 179.506C330.701 181.497 330.773 183.414 330.69 185.442C331.269 185.443 331.816 185.442 332.347 185.441L332.363 185.441L332.38 185.441C333.854 185.438 335.212 185.434 336.84 185.51C336.822 184.196 336.835 182.884 336.879 181.572C336.892 180.989 336.859 180.396 336.826 179.81C336.819 179.685 336.812 179.561 336.806 179.436Z"/><path fill="#FFFEFB" transform="matrix(0.481023 0 0 0.481023 31.2172 346.885)" d="M97.5124 293.822C95.4151 293.762 93.9499 293.79 91.8547 293.858C91.0117 294.176 91.2757 297.444 91.403 299.017C91.4226 299.26 91.4391 299.464 91.4476 299.609C93.3658 299.71 95.2851 299.79 97.2049 299.851C97.6859 299.333 97.5902 296.384 97.5358 294.706L97.5358 294.705C97.5238 294.336 97.5138 294.029 97.5124 293.822Z"/><path fill="#FFFEFB" transform="matrix(0.481023 0 0 0.481023 31.2172 346.885)" d="M301.088 196.618C299.286 196.617 297.485 196.639 295.683 196.682C294.859 198.003 295.029 200.554 295.145 202.294L295.145 202.296L295.145 202.297C295.156 202.481 295.168 202.655 295.179 202.816C297.033 202.778 298.707 202.76 300.564 202.797C301.413 202.599 301.226 199.237 301.127 197.461C301.107 197.102 301.091 196.808 301.088 196.618Z"/><path fill="#FFFEFB" transform="matrix(0.481023 0 0 0.481023 31.2172 346.885)" d="M124.914 361.464C122.728 361.399 121.19 361.361 119 361.439C118.928 363.469 118.939 365.501 119.033 367.53L124.912 367.604C124.951 365.557 124.952 363.51 124.914 361.464Z"/><path fill="#FFFEFB" transform="matrix(0.481023 0 0 0.481023 31.2172 346.885)" d="M85.911 302.339C83.8911 302.276 81.8701 302.264 79.8495 302.305C79.8496 302.608 79.8491 302.907 79.8487 303.204C79.8461 304.877 79.8437 306.496 79.938 308.191C81.9198 308.248 83.9061 308.257 85.8889 308.266C86.0587 305.848 86.0421 304.743 85.911 302.339Z"/><path fill="#FFFEFB" transform="matrix(0.481023 0 0 0.481023 31.2172 346.885)" d="M196.496 332.01C194.47 331.99 192.438 331.978 190.418 332.113C190.378 334.058 190.372 336.002 190.402 337.947C192.528 337.929 194.393 337.922 196.525 337.972L196.54 337.623C196.498 335.749 196.533 333.888 196.496 332.01Z"/><path fill="#FFFEFB" transform="matrix(0.481023 0 0 0.481023 31.2172 346.885)" d="M143.299 254.923C141.926 254.855 140.551 254.826 139.176 254.836C138.828 254.861 137.45 254.903 137.386 255.065C137.117 255.751 137.191 258.667 137.23 260.164L137.23 260.181C137.238 260.483 137.245 260.725 137.246 260.878L141.847 260.834C141.857 260.834 141.879 260.836 141.911 260.839L141.912 260.839L141.917 260.839C142.188 260.859 143.094 260.927 143.129 260.746C143.415 259.206 143.359 257.123 143.313 255.463L143.313 255.462L143.313 255.446C143.308 255.266 143.303 255.091 143.299 254.923Z"/><path fill="#FFFEFB" transform="matrix(0.481023 0 0 0.481023 31.2172 346.885)" d="M155.021 327.016L154.748 327.022C154.781 328.38 154.782 329.806 154.782 331.211C154.782 331.861 154.782 332.507 154.786 333.139C156.708 333.195 158.631 333.221 160.555 333.215L160.561 332.956C160.609 330.903 160.649 329.238 160.568 327.146L160.023 327.101C158.357 326.938 156.691 326.977 155.021 327.016Z"/><path fill="#FFFEFB" transform="matrix(0.481023 0 0 0.481023 31.2172 346.885)" d="M128.506 286.406C127.612 286.382 126.717 286.369 125.821 286.369C124.624 286.398 123.61 286.457 122.422 286.535C122.444 288.464 122.445 290.394 122.427 292.323C123.398 292.336 124.368 292.335 125.338 292.321L128.484 292.35L128.506 286.406Z"/><path fill="#FFFEFB" transform="matrix(0.481023 0 0 0.481023 31.2172 346.885)" d="M143.019 337.7C141.006 337.643 139.164 337.653 137.154 337.666C137.126 339.663 137.164 341.66 137.27 343.654C139.175 343.747 141.18 343.734 143.1 343.782C143.144 341.66 143.157 339.824 143.019 337.7Z"/><path fill="#FFFEFB" transform="matrix(0.481023 0 0 0.481023 31.2172 346.885)" d="M143.896 286.031C142.796 285.849 139.126 286.065 138.128 286.126C138.124 286.74 138.124 287.341 138.122 287.936C138.121 289.289 138.12 290.618 138.073 292.018C138.467 292.015 139.019 292.019 139.637 292.025C141.231 292.04 143.255 292.059 144.1 291.927C143.966 290.691 143.985 289.886 144.012 288.78L144.012 288.773L144.012 288.765C144.017 288.564 144.021 288.354 144.026 288.129C144 287.622 143.986 287.298 144.005 286.797L144.005 286.711C144.006 286.488 144.006 286.051 143.896 286.031Z"/><path fill="#FFFEFB" transform="matrix(0.481023 0 0 0.481023 31.2172 346.885)" d="M128.474 271.048C126.434 270.999 124.393 270.997 122.354 271.042C122.304 272.96 122.313 274.879 122.383 276.797C122.832 276.798 123.301 276.8 123.781 276.803L123.855 276.803L123.933 276.803C125.39 276.81 126.928 276.817 128.264 276.784L128.474 271.048Z"/><path fill="#FFFEFB" transform="matrix(0.481023 0 0 0.481023 31.2172 346.885)" d="M161.51 255.02L161.318 255.029C161.187 256.581 161.181 258.093 161.174 259.629C161.173 260.079 161.171 260.531 161.166 260.987C163.52 260.904 164.581 260.826 166.856 260.386C167.312 259.735 167.256 257.217 167.224 255.748C167.217 255.452 167.212 255.199 167.211 255.012C164.878 254.867 163.772 254.917 161.51 255.02Z"/><path fill="#FFFEFB" transform="matrix(0.481023 0 0 0.481023 31.2172 346.885)" d="M317.122 223.003C316.565 222.423 315.369 222.458 312.905 222.53C312.481 222.541 312.02 222.555 311.517 222.567C311.518 224.53 311.543 226.493 311.593 228.456L317.459 228.518C317.476 227.866 317.499 227.282 317.52 226.761C317.604 224.641 317.647 223.548 317.122 223.003Z"/><path fill="#FFFEFB" transform="matrix(0.481023 0 0 0.481023 31.2172 346.885)" d="M185.487 323.125C183.419 323.04 181.749 323.06 179.681 323.096C179.665 325.059 179.661 327.022 179.669 328.985L185.468 329.026C185.579 326.774 185.578 325.353 185.487 323.125Z"/><path fill="#FFFEFB" transform="matrix(0.481023 0 0 0.481023 31.2172 346.885)" d="M109.682 261.283C107.818 261.168 106.46 261.169 104.599 261.208C103.576 261.431 103.744 264.313 103.851 266.14L103.851 266.141C103.877 266.595 103.9 266.985 103.9 267.25C105.702 267.225 107.368 267.202 109.174 267.232C109.909 266.978 109.776 263.737 109.708 262.061C109.694 261.729 109.683 261.457 109.682 261.283Z"/><path fill="#FFFEFB" transform="matrix(0.481023 0 0 0.481023 31.2172 346.885)" d="M295.822 233.147C293.762 233.137 291.823 233.129 289.761 233.156L289.785 238.82C291.717 238.838 293.649 238.84 295.581 238.824C295.705 236.855 295.793 235.122 295.822 233.147Z"/><path fill="#FFFEFB" transform="matrix(0.481023 0 0 0.481023 31.2172 346.885)" d="M148.967 277.375C148.956 277.015 148.946 276.727 148.946 276.556C147.204 276.581 145.734 276.592 143.994 276.713C143.124 277.029 143.165 279.746 143.192 281.504L143.192 281.506L143.192 281.516C143.199 281.968 143.204 282.357 143.194 282.623L148.43 282.639C149.139 282.471 149.025 279.1 148.967 277.377L148.967 277.376L148.967 277.375Z"/><path fill="#FFFEFB" transform="matrix(0.481023 0 0 0.481023 31.2172 346.885)" d="M202.393 323.207C200.443 323.177 198.842 323.166 196.887 323.279C196.777 324.757 196.784 326.159 196.79 327.597L196.79 327.604L196.79 327.653C196.794 328.133 196.796 328.617 196.794 329.11L202.415 329.124C202.469 327.098 202.48 325.229 202.393 323.207Z"/><path fill="#FFFEFB" transform="matrix(0.481023 0 0 0.481023 31.2172 346.885)" d="M311.343 203.85L310.936 203.862C310.905 205.056 310.928 206.352 310.951 207.63C310.964 208.306 310.975 208.977 310.979 209.623C312.843 209.657 314.687 209.65 316.553 209.724L316.575 203.746C314.819 203.743 313.18 203.793 311.451 203.846L311.403 203.847L311.343 203.85Z"/><path fill="#FFFEFB" transform="matrix(0.481023 0 0 0.481023 31.2172 346.885)" d="M169.132 270.311C168.941 270.324 168.798 270.333 168.73 270.333C167.117 270.403 166.385 270.431 166.08 270.807C165.827 271.118 165.869 271.669 165.945 272.682L165.945 272.684C165.995 273.337 166.06 274.182 166.069 275.278C167.52 275.272 168.882 275.224 170.332 275.183C171.921 275.333 171.805 274.565 171.65 273.549C171.524 272.72 171.373 271.725 172.111 270.934C172.927 270.06 170.239 270.238 169.136 270.311L169.135 270.311L169.132 270.311Z"/><path fill="#FFFEFB" transform="matrix(0.481023 0 0 0.481023 31.2172 346.885)" d="M301.43 210.335C300.121 210.304 298.934 210.306 297.622 210.327C297.522 210.337 296.456 210.395 296.427 210.549C296.234 211.542 296.23 212.767 296.225 213.909C296.224 214.358 296.222 214.794 296.209 215.199C297.577 215.182 298.945 215.177 300.313 215.184C300.387 215.188 300.462 215.193 300.535 215.2C300.819 215.224 301.092 215.246 301.315 215.106C301.616 214.56 301.468 211.105 301.43 210.335Z"/><path fill="#FFFEFB" transform="matrix(0.481023 0 0 0.481023 31.2172 346.885)" d="M326.779 227.861C324.881 227.805 323.783 227.839 321.899 227.933C321.832 229.529 321.853 231.103 321.826 232.702C323.447 232.682 325.099 232.664 326.719 232.684C327.026 232.233 326.901 230.057 326.823 228.706L326.823 228.705L326.822 228.679C326.802 228.338 326.785 228.051 326.779 227.861Z"/><path fill="#FFFEFB" transform="matrix(0.481023 0 0 0.481023 31.2172 346.885)" d="M322.441 196.458C321.165 196.435 319.888 196.448 318.613 196.501C317.544 196.671 317.663 199 317.747 200.624L317.75 200.705L317.751 200.719C317.771 201.129 317.789 201.488 317.781 201.748L321.232 201.771C321.252 201.771 321.282 201.773 321.322 201.774C321.588 201.786 322.234 201.813 322.262 201.716C322.53 200.827 322.478 198.307 322.45 196.996C322.447 196.779 322.442 196.596 322.441 196.458Z"/><path fill="#FFFEFB" transform="matrix(0.481023 0 0 0.481023 31.2172 346.885)" d="M154.187 270.236C152.54 270.163 151.187 270.216 149.561 270.378C149.53 271.877 149.522 273.378 149.536 274.878C151.089 274.852 152.443 274.819 153.998 274.714C154.216 273.176 154.208 272.428 154.194 271.139L154.194 271.138L154.194 271.117C154.192 270.851 154.188 270.561 154.187 270.236Z"/><path fill="#FFFEFB" transform="matrix(0.481023 0 0 0.481023 31.2172 346.885)" d="M322.132 233.124C320.764 233.162 319.398 233.218 318.031 233.292C317.945 234.981 317.989 236.006 318.117 237.656C319.438 237.659 320.76 237.623 322.08 237.546C322.08 236.072 322.097 234.597 322.132 233.124Z"/><path fill="#FEFEFE" fill-opacity="0.074509807" transform="matrix(0.481023 0 0 0.481023 31.2172 346.885)" d="M339.886 203.069C340.027 202.123 340.182 201.078 340.528 200.798C340.283 200.536 340.058 200.365 339.724 200.232L339.418 200.102C339.399 200.785 339.194 201.36 339.004 201.892C338.675 202.811 338.392 203.605 339.19 204.619C339.582 205.119 339.725 204.159 339.886 203.069Z"/><path fill="#FEFEFE" fill-opacity="0.031372551" transform="matrix(0.481023 0 0 0.481023 31.2172 346.885)" d="M144.657 289.668C144.693 288.859 144.741 287.783 144.026 288.129C144.021 288.354 144.017 288.564 144.012 288.765L144.012 288.773L144.012 288.78C143.985 289.886 143.966 290.691 144.1 291.927L144.547 292.017C144.558 291.375 144.584 290.868 144.645 290.229C144.638 290.091 144.647 289.905 144.656 289.702L144.657 289.668Z"/><path fill="#FEFEFE" fill-opacity="0.7647059" transform="matrix(0.481023 0 0 0.481023 31.2172 346.885)" d="M358.447 227.355C358.316 228.686 358.305 229.328 358.428 230.662C358.656 230.575 358.883 230.488 359.111 230.402C359.164 229.775 359.183 229.277 359.196 228.653L358.604 228.428L358.447 227.355Z"/><path fill="#FEFEFE" fill-opacity="0.4627451" transform="matrix(0.481023 0 0 0.481023 31.2172 346.885)" d="M340.528 200.798C344.031 201.043 342.057 199.53 339.418 200.102L339.724 200.232C340.058 200.365 340.283 200.536 340.528 200.798Z"/><path fill="#FEFEFE" fill-opacity="0.20784314" transform="matrix(0.481023 0 0 0.481023 31.2172 346.885)" d="M179.811 267.433C179.534 267.21 179.536 267.233 179.391 266.913C179.377 267.969 179.377 268.807 179.444 269.873L179.93 269.673C179.926 268.8 179.89 268.296 179.811 267.433Z"/><path fill="#FEFEFE" fill-opacity="0.49411765" transform="matrix(0.481023 0 0 0.481023 31.2172 346.885)" d="M144.149 286.838C144.097 286.823 144.048 286.808 144.005 286.797C143.986 287.298 144 287.622 144.026 288.129C144.741 287.783 144.693 288.859 144.657 289.668L144.656 289.702C144.647 289.905 144.638 290.091 144.645 290.229C144.747 289.194 144.77 288.008 144.776 286.966C144.593 286.966 144.344 286.895 144.149 286.838Z"/><path fill="#FEFEFE" fill-opacity="0.24705882" transform="matrix(0.481023 0 0 0.481023 31.2172 346.885)" d="M137.65 297.512L137.387 297.609C137.388 297.641 137.389 297.67 137.39 297.699L137.39 297.703C137.407 298.096 137.414 298.268 137.156 298.62L136.99 300.054L137.66 299.788L137.65 297.512Z"/><path fill="#FFFEFB" transform="matrix(0.481023 0 0 0.481023 31.2172 346.885)" d="M408.346 298.535C408.171 298.159 408.019 297.835 407.826 297.466L407.432 297.531L407.877 298.621L408.346 298.535Z"/><path fill="#C1C2C5" fill-opacity="0.38039216" transform="matrix(0.481023 0 0 0.481023 31.2172 346.885)" d="M196.756 337.628C196.674 337.628 196.601 337.626 196.54 337.623L196.525 337.972C196.554 337.982 196.587 337.993 196.625 338.007L196.63 338.009L196.632 338.01C196.964 338.126 197.568 338.337 197.763 337.965C197.67 337.637 197.136 337.631 196.756 337.628Z"/><path fill="#FEFEFE" fill-opacity="0.45882353" transform="matrix(0.481023 0 0 0.481023 31.2172 346.885)" d="M137.387 297.609L137.106 297.526C137.09 297.974 137.108 298.157 137.152 298.591L137.156 298.62C137.414 298.268 137.407 298.096 137.39 297.703L137.39 297.699C137.389 297.67 137.388 297.641 137.387 297.609Z"/></g></svg>